<svg xmlns="http://www.w3.org/2000/svg" baseProfile="full" version="1.1" viewBox="0 0 2160 2790"><rect width="668.3294117647059" height="253.63636363636365" x="47.64705882352941" y="126.81818181818183" fill="none" stroke="#404040" stroke-miterlimit="10" rx="25.41176470588235" ry="25.363636363636367"/><rect width="668.3294117647059" height="253.63636363636365" x="746.4705882352941" y="126.81818181818183" fill="none" stroke="#404040" stroke-miterlimit="10" rx="25.41176470588235" ry="25.363636363636367"/><rect width="668.3294117647059" height="253.63636363636365" x="1445.294117647059" y="126.81818181818183" fill="none" stroke="#404040" stroke-miterlimit="10" rx="25.41176470588235" ry="25.363636363636367"/><rect width="668.3294117647059" height="253.63636363636365" x="47.64705882352941" y="380.4545454545455" fill="none" stroke="#404040" stroke-miterlimit="10" rx="25.41176470588235" ry="25.363636363636367"/><rect width="668.3294117647059" height="253.63636363636365" x="746.4705882352941" y="380.4545454545455" fill="none" stroke="#404040" stroke-miterlimit="10" rx="25.41176470588235" ry="25.363636363636367"/><rect width="668.3294117647059" height="253.63636363636365" x="1445.294117647059" y="380.4545454545455" fill="none" stroke="#404040" stroke-miterlimit="10" rx="25.41176470588235" ry="25.363636363636367"/><rect width="668.3294117647059" height="253.63636363636365" x="47.64705882352941" y="634.0909090909091" fill="none" stroke="#404040" stroke-miterlimit="10" rx="25.41176470588235" ry="25.363636363636367"/><rect width="668.3294117647059" height="253.63636363636365" x="746.4705882352941" y="634.0909090909091" fill="none" stroke="#404040" stroke-miterlimit="10" rx="25.41176470588235" ry="25.363636363636367"/><rect width="668.3294117647059" height="253.63636363636365" x="1445.294117647059" y="634.0909090909091" fill="none" stroke="#404040" stroke-miterlimit="10" rx="25.41176470588235" ry="25.363636363636367"/><rect width="668.3294117647059" height="253.63636363636365" x="47.64705882352941" y="887.7272727272729" fill="none" stroke="#404040" stroke-miterlimit="10" rx="25.41176470588235" ry="25.363636363636367"/><rect width="668.3294117647059" height="253.63636363636365" x="746.4705882352941" y="887.7272727272729" fill="none" stroke="#404040" stroke-miterlimit="10" rx="25.41176470588235" ry="25.363636363636367"/><rect width="668.3294117647059" height="253.63636363636365" x="1445.294117647059" y="887.7272727272729" fill="none" stroke="#404040" stroke-miterlimit="10" rx="25.41176470588235" ry="25.363636363636367"/><rect width="668.3294117647059" height="253.63636363636365" x="47.64705882352941" y="1141.3636363636365" fill="none" stroke="#404040" stroke-miterlimit="10" rx="25.41176470588235" ry="25.363636363636367"/><rect width="668.3294117647059" height="253.63636363636365" x="746.4705882352941" y="1141.3636363636365" fill="none" stroke="#404040" stroke-miterlimit="10" rx="25.41176470588235" ry="25.363636363636367"/><rect width="668.3294117647059" height="253.63636363636365" x="1445.294117647059" y="1141.3636363636365" fill="none" stroke="#404040" stroke-miterlimit="10" rx="25.41176470588235" ry="25.363636363636367"/><rect width="668.3294117647059" height="253.63636363636365" x="47.64705882352941" y="1395.0" fill="none" stroke="#404040" stroke-miterlimit="10" rx="25.41176470588235" ry="25.363636363636367"/><rect width="668.3294117647059" height="253.63636363636365" x="746.4705882352941" y="1395.0" fill="none" stroke="#404040" stroke-miterlimit="10" rx="25.41176470588235" ry="25.363636363636367"/><rect width="668.3294117647059" height="253.63636363636365" x="1445.294117647059" y="1395.0" fill="none" stroke="#404040" stroke-miterlimit="10" rx="25.41176470588235" ry="25.363636363636367"/><rect width="668.3294117647059" height="253.63636363636365" x="47.64705882352941" y="1648.6363636363637" fill="none" stroke="#404040" stroke-miterlimit="10" rx="25.41176470588235" ry="25.363636363636367"/><rect width="668.3294117647059" height="253.63636363636365" x="746.4705882352941" y="1648.6363636363637" fill="none" stroke="#404040" stroke-miterlimit="10" rx="25.41176470588235" ry="25.363636363636367"/><rect width="668.3294117647059" height="253.63636363636365" x="1445.294117647059" y="1648.6363636363637" fill="none" stroke="#404040" stroke-miterlimit="10" rx="25.41176470588235" ry="25.363636363636367"/><rect width="668.3294117647059" height="253.63636363636365" x="47.64705882352941" y="1902.2727272727273" fill="none" stroke="#404040" stroke-miterlimit="10" rx="25.41176470588235" ry="25.363636363636367"/><rect width="668.3294117647059" height="253.63636363636365" x="746.4705882352941" y="1902.2727272727273" fill="none" stroke="#404040" stroke-miterlimit="10" rx="25.41176470588235" ry="25.363636363636367"/><rect width="668.3294117647059" height="253.63636363636365" x="1445.294117647059" y="1902.2727272727273" fill="none" stroke="#404040" stroke-miterlimit="10" rx="25.41176470588235" ry="25.363636363636367"/><rect width="668.3294117647059" height="253.63636363636365" x="47.64705882352941" y="2155.909090909091" fill="none" stroke="#404040" stroke-miterlimit="10" rx="25.41176470588235" ry="25.363636363636367"/><rect width="668.3294117647059" height="253.63636363636365" x="746.4705882352941" y="2155.909090909091" fill="none" stroke="#404040" stroke-miterlimit="10" rx="25.41176470588235" ry="25.363636363636367"/><rect width="668.3294117647059" height="253.63636363636365" x="1445.294117647059" y="2155.909090909091" fill="none" stroke="#404040" stroke-miterlimit="10" rx="25.41176470588235" ry="25.363636363636367"/><rect width="668.3294117647059" height="253.63636363636365" x="47.64705882352941" y="2409.545454545455" fill="none" stroke="#404040" stroke-miterlimit="10" rx="25.41176470588235" ry="25.363636363636367"/><rect width="668.3294117647059" height="253.63636363636365" x="746.4705882352941" y="2409.545454545455" fill="none" stroke="#404040" stroke-miterlimit="10" rx="25.41176470588235" ry="25.363636363636367"/><rect width="668.3294117647059" height="253.63636363636365" x="1445.294117647059" y="2409.545454545455" fill="none" stroke="#404040" stroke-miterlimit="10" rx="25.41176470588235" ry="25.363636363636367"/><g><text x="85" y="135" dominant-baseline="hanging" font-family="&quot;EB Garamond&quot;,&quot;Times New Roman&quot;,serif" font-size="35" font-weight="700">Murders at Karlov Manor</text><text x="85" y="175" dominant-baseline="hanging" font-family="&quot;Source Sans Pro&quot;,&quot;Helvetica Neue&quot;,Helvetica,Arial,sans-serif" font-size="25">MKM - February 2024</text><image width="70" height="70" x="610" y="140" href="mkm.svg"/></g><rect width="668.3294117647059" height="253.63636363636365" x="47.64705882352941" y="126.81818181818183" fill="none" stroke="#404040" stroke-miterlimit="10" rx="25.41176470588235" ry="25.363636363636367"/><rect width="668.3294117647059" height="253.63636363636365" x="746.4705882352941" y="126.81818181818183" fill="none" stroke="#404040" stroke-miterlimit="10" rx="25.41176470588235" ry="25.363636363636367"/><rect width="668.3294117647059" height="253.63636363636365" x="1445.294117647059" y="126.81818181818183" fill="none" stroke="#404040" stroke-miterlimit="10" rx="25.41176470588235" ry="25.363636363636367"/><rect width="668.3294117647059" height="253.63636363636365" x="47.64705882352941" y="380.4545454545455" fill="none" stroke="#404040" stroke-miterlimit="10" rx="25.41176470588235" ry="25.363636363636367"/><rect width="668.3294117647059" height="253.63636363636365" x="746.4705882352941" y="380.4545454545455" fill="none" stroke="#404040" stroke-miterlimit="10" rx="25.41176470588235" ry="25.363636363636367"/><rect width="668.3294117647059" height="253.63636363636365" x="1445.294117647059" y="380.4545454545455" fill="none" stroke="#404040" stroke-miterlimit="10" rx="25.41176470588235" ry="25.363636363636367"/><rect width="668.3294117647059" height="253.63636363636365" x="47.64705882352941" y="634.0909090909091" fill="none" stroke="#404040" stroke-miterlimit="10" rx="25.41176470588235" ry="25.363636363636367"/><rect width="668.3294117647059" height="253.63636363636365" x="746.4705882352941" y="634.0909090909091" fill="none" stroke="#404040" stroke-miterlimit="10" rx="25.41176470588235" ry="25.363636363636367"/><rect width="668.3294117647059" height="253.63636363636365" x="1445.294117647059" y="634.0909090909091" fill="none" stroke="#404040" stroke-miterlimit="10" rx="25.41176470588235" ry="25.363636363636367"/><rect width="668.3294117647059" height="253.63636363636365" x="47.64705882352941" y="887.7272727272729" fill="none" stroke="#404040" stroke-miterlimit="10" rx="25.41176470588235" ry="25.363636363636367"/><rect width="668.3294117647059" height="253.63636363636365" x="746.4705882352941" y="887.7272727272729" fill="none" stroke="#404040" stroke-miterlimit="10" rx="25.41176470588235" ry="25.363636363636367"/><rect width="668.3294117647059" height="253.63636363636365" x="1445.294117647059" y="887.7272727272729" fill="none" stroke="#404040" stroke-miterlimit="10" rx="25.41176470588235" ry="25.363636363636367"/><rect width="668.3294117647059" height="253.63636363636365" x="47.64705882352941" y="1141.3636363636365" fill="none" stroke="#404040" stroke-miterlimit="10" rx="25.41176470588235" ry="25.363636363636367"/><rect width="668.3294117647059" height="253.63636363636365" x="746.4705882352941" y="1141.3636363636365" fill="none" stroke="#404040" stroke-miterlimit="10" rx="25.41176470588235" ry="25.363636363636367"/><rect width="668.3294117647059" height="253.63636363636365" x="1445.294117647059" y="1141.3636363636365" fill="none" stroke="#404040" stroke-miterlimit="10" rx="25.41176470588235" ry="25.363636363636367"/><rect width="668.3294117647059" height="253.63636363636365" x="47.64705882352941" y="1395.0" fill="none" stroke="#404040" stroke-miterlimit="10" rx="25.41176470588235" ry="25.363636363636367"/><rect width="668.3294117647059" height="253.63636363636365" x="746.4705882352941" y="1395.0" fill="none" stroke="#404040" stroke-miterlimit="10" rx="25.41176470588235" ry="25.363636363636367"/><rect width="668.3294117647059" height="253.63636363636365" x="1445.294117647059" y="1395.0" fill="none" stroke="#404040" stroke-miterlimit="10" rx="25.41176470588235" ry="25.363636363636367"/><rect width="668.3294117647059" height="253.63636363636365" x="47.64705882352941" y="1648.6363636363637" fill="none" stroke="#404040" stroke-miterlimit="10" rx="25.41176470588235" ry="25.363636363636367"/><rect width="668.3294117647059" height="253.63636363636365" x="746.4705882352941" y="1648.6363636363637" fill="none" stroke="#404040" stroke-miterlimit="10" rx="25.41176470588235" ry="25.363636363636367"/><rect width="668.3294117647059" height="253.63636363636365" x="1445.294117647059" y="1648.6363636363637" fill="none" stroke="#404040" stroke-miterlimit="10" rx="25.41176470588235" ry="25.363636363636367"/><rect width="668.3294117647059" height="253.63636363636365" x="47.64705882352941" y="1902.2727272727273" fill="none" stroke="#404040" stroke-miterlimit="10" rx="25.41176470588235" ry="25.363636363636367"/><rect width="668.3294117647059" height="253.63636363636365" x="746.4705882352941" y="1902.2727272727273" fill="none" stroke="#404040" stroke-miterlimit="10" rx="25.41176470588235" ry="25.363636363636367"/><rect width="668.3294117647059" height="253.63636363636365" x="1445.294117647059" y="1902.2727272727273" fill="none" stroke="#404040" stroke-miterlimit="10" rx="25.41176470588235" ry="25.363636363636367"/><rect width="668.3294117647059" height="253.63636363636365" x="47.64705882352941" y="2155.909090909091" fill="none" stroke="#404040" stroke-miterlimit="10" rx="25.41176470588235" ry="25.363636363636367"/><rect width="668.3294117647059" height="253.63636363636365" x="746.4705882352941" y="2155.909090909091" fill="none" stroke="#404040" stroke-miterlimit="10" rx="25.41176470588235" ry="25.363636363636367"/><rect width="668.3294117647059" height="253.63636363636365" x="1445.294117647059" y="2155.909090909091" fill="none" stroke="#404040" stroke-miterlimit="10" rx="25.41176470588235" ry="25.363636363636367"/><rect width="668.3294117647059" height="253.63636363636365" x="47.64705882352941" y="2409.545454545455" fill="none" stroke="#404040" stroke-miterlimit="10" rx="25.41176470588235" ry="25.363636363636367"/><rect width="668.3294117647059" height="253.63636363636365" x="746.4705882352941" y="2409.545454545455" fill="none" stroke="#404040" stroke-miterlimit="10" rx="25.41176470588235" ry="25.363636363636367"/><rect width="668.3294117647059" height="253.63636363636365" x="1445.294117647059" y="2409.545454545455" fill="none" stroke="#404040" stroke-miterlimit="10" rx="25.41176470588235" ry="25.363636363636367"/><g><text x="85" y="388.0" dominant-baseline="hanging" font-family="&quot;EB Garamond&quot;,&quot;Times New Roman&quot;,serif" font-size="35" font-weight="700">Murders at Karlov Manor Commander</text><text x="85" y="428.0" dominant-baseline="hanging" font-family="&quot;Source Sans Pro&quot;,&quot;Helvetica Neue&quot;,Helvetica,Arial,sans-serif" font-size="25">MKC - February 2024</text><image width="70" height="70" x="610" y="393.0" href="mkc.svg"/></g><rect width="668.3294117647059" height="253.63636363636365" x="47.64705882352941" y="126.81818181818183" fill="none" stroke="#404040" stroke-miterlimit="10" rx="25.41176470588235" ry="25.363636363636367"/><rect width="668.3294117647059" height="253.63636363636365" x="746.4705882352941" y="126.81818181818183" fill="none" stroke="#404040" stroke-miterlimit="10" rx="25.41176470588235" ry="25.363636363636367"/><rect width="668.3294117647059" height="253.63636363636365" x="1445.294117647059" y="126.81818181818183" fill="none" stroke="#404040" stroke-miterlimit="10" rx="25.41176470588235" ry="25.363636363636367"/><rect width="668.3294117647059" height="253.63636363636365" x="47.64705882352941" y="380.4545454545455" fill="none" stroke="#404040" stroke-miterlimit="10" rx="25.41176470588235" ry="25.363636363636367"/><rect width="668.3294117647059" height="253.63636363636365" x="746.4705882352941" y="380.4545454545455" fill="none" stroke="#404040" stroke-miterlimit="10" rx="25.41176470588235" ry="25.363636363636367"/><rect width="668.3294117647059" height="253.63636363636365" x="1445.294117647059" y="380.4545454545455" fill="none" stroke="#404040" stroke-miterlimit="10" rx="25.41176470588235" ry="25.363636363636367"/><rect width="668.3294117647059" height="253.63636363636365" x="47.64705882352941" y="634.0909090909091" fill="none" stroke="#404040" stroke-miterlimit="10" rx="25.41176470588235" ry="25.363636363636367"/><rect width="668.3294117647059" height="253.63636363636365" x="746.4705882352941" y="634.0909090909091" fill="none" stroke="#404040" stroke-miterlimit="10" rx="25.41176470588235" ry="25.363636363636367"/><rect width="668.3294117647059" height="253.63636363636365" x="1445.294117647059" y="634.0909090909091" fill="none" stroke="#404040" stroke-miterlimit="10" rx="25.41176470588235" ry="25.363636363636367"/><rect width="668.3294117647059" height="253.63636363636365" x="47.64705882352941" y="887.7272727272729" fill="none" stroke="#404040" stroke-miterlimit="10" rx="25.41176470588235" ry="25.363636363636367"/><rect width="668.3294117647059" height="253.63636363636365" x="746.4705882352941" y="887.7272727272729" fill="none" stroke="#404040" stroke-miterlimit="10" rx="25.41176470588235" ry="25.363636363636367"/><rect width="668.3294117647059" height="253.63636363636365" x="1445.294117647059" y="887.7272727272729" fill="none" stroke="#404040" stroke-miterlimit="10" rx="25.41176470588235" ry="25.363636363636367"/><rect width="668.3294117647059" height="253.63636363636365" x="47.64705882352941" y="1141.3636363636365" fill="none" stroke="#404040" stroke-miterlimit="10" rx="25.41176470588235" ry="25.363636363636367"/><rect width="668.3294117647059" height="253.63636363636365" x="746.4705882352941" y="1141.3636363636365" fill="none" stroke="#404040" stroke-miterlimit="10" rx="25.41176470588235" ry="25.363636363636367"/><rect width="668.3294117647059" height="253.63636363636365" x="1445.294117647059" y="1141.3636363636365" fill="none" stroke="#404040" stroke-miterlimit="10" rx="25.41176470588235" ry="25.363636363636367"/><rect width="668.3294117647059" height="253.63636363636365" x="47.64705882352941" y="1395.0" fill="none" stroke="#404040" stroke-miterlimit="10" rx="25.41176470588235" ry="25.363636363636367"/><rect width="668.3294117647059" height="253.63636363636365" x="746.4705882352941" y="1395.0" fill="none" stroke="#404040" stroke-miterlimit="10" rx="25.41176470588235" ry="25.363636363636367"/><rect width="668.3294117647059" height="253.63636363636365" x="1445.294117647059" y="1395.0" fill="none" stroke="#404040" stroke-miterlimit="10" rx="25.41176470588235" ry="25.363636363636367"/><rect width="668.3294117647059" height="253.63636363636365" x="47.64705882352941" y="1648.6363636363637" fill="none" stroke="#404040" stroke-miterlimit="10" rx="25.41176470588235" ry="25.363636363636367"/><rect width="668.3294117647059" height="253.63636363636365" x="746.4705882352941" y="1648.6363636363637" fill="none" stroke="#404040" stroke-miterlimit="10" rx="25.41176470588235" ry="25.363636363636367"/><rect width="668.3294117647059" height="253.63636363636365" x="1445.294117647059" y="1648.6363636363637" fill="none" stroke="#404040" stroke-miterlimit="10" rx="25.41176470588235" ry="25.363636363636367"/><rect width="668.3294117647059" height="253.63636363636365" x="47.64705882352941" y="1902.2727272727273" fill="none" stroke="#404040" stroke-miterlimit="10" rx="25.41176470588235" ry="25.363636363636367"/><rect width="668.3294117647059" height="253.63636363636365" x="746.4705882352941" y="1902.2727272727273" fill="none" stroke="#404040" stroke-miterlimit="10" rx="25.41176470588235" ry="25.363636363636367"/><rect width="668.3294117647059" height="253.63636363636365" x="1445.294117647059" y="1902.2727272727273" fill="none" stroke="#404040" stroke-miterlimit="10" rx="25.41176470588235" ry="25.363636363636367"/><rect width="668.3294117647059" height="253.63636363636365" x="47.64705882352941" y="2155.909090909091" fill="none" stroke="#404040" stroke-miterlimit="10" rx="25.41176470588235" ry="25.363636363636367"/><rect width="668.3294117647059" height="253.63636363636365" x="746.4705882352941" y="2155.909090909091" fill="none" stroke="#404040" stroke-miterlimit="10" rx="25.41176470588235" ry="25.363636363636367"/><rect width="668.3294117647059" height="253.63636363636365" x="1445.294117647059" y="2155.909090909091" fill="none" stroke="#404040" stroke-miterlimit="10" rx="25.41176470588235" ry="25.363636363636367"/><rect width="668.3294117647059" height="253.63636363636365" x="47.64705882352941" y="2409.545454545455" fill="none" stroke="#404040" stroke-miterlimit="10" rx="25.41176470588235" ry="25.363636363636367"/><rect width="668.3294117647059" height="253.63636363636365" x="746.4705882352941" y="2409.545454545455" fill="none" stroke="#404040" stroke-miterlimit="10" rx="25.41176470588235" ry="25.363636363636367"/><rect width="668.3294117647059" height="253.63636363636365" x="1445.294117647059" y="2409.545454545455" fill="none" stroke="#404040" stroke-miterlimit="10" rx="25.41176470588235" ry="25.363636363636367"/><g><text x="85" y="641.0" dominant-baseline="hanging" font-family="&quot;EB Garamond&quot;,&quot;Times New Roman&quot;,serif" font-size="35" font-weight="700">Murders at Karlov Manor Promos</text><text x="85" y="681.0" dominant-baseline="hanging" font-family="&quot;Source Sans Pro&quot;,&quot;Helvetica Neue&quot;,Helvetica,Arial,sans-serif" font-size="25">PMKM - February 2024</text><image width="70" height="70" x="610" y="646.0" href="mkm.svg"/></g><rect width="668.3294117647059" height="253.63636363636365" x="47.64705882352941" y="126.81818181818183" fill="none" stroke="#404040" stroke-miterlimit="10" rx="25.41176470588235" ry="25.363636363636367"/><rect width="668.3294117647059" height="253.63636363636365" x="746.4705882352941" y="126.81818181818183" fill="none" stroke="#404040" stroke-miterlimit="10" rx="25.41176470588235" ry="25.363636363636367"/><rect width="668.3294117647059" height="253.63636363636365" x="1445.294117647059" y="126.81818181818183" fill="none" stroke="#404040" stroke-miterlimit="10" rx="25.41176470588235" ry="25.363636363636367"/><rect width="668.3294117647059" height="253.63636363636365" x="47.64705882352941" y="380.4545454545455" fill="none" stroke="#404040" stroke-miterlimit="10" rx="25.41176470588235" ry="25.363636363636367"/><rect width="668.3294117647059" height="253.63636363636365" x="746.4705882352941" y="380.4545454545455" fill="none" stroke="#404040" stroke-miterlimit="10" rx="25.41176470588235" ry="25.363636363636367"/><rect width="668.3294117647059" height="253.63636363636365" x="1445.294117647059" y="380.4545454545455" fill="none" stroke="#404040" stroke-miterlimit="10" rx="25.41176470588235" ry="25.363636363636367"/><rect width="668.3294117647059" height="253.63636363636365" x="47.64705882352941" y="634.0909090909091" fill="none" stroke="#404040" stroke-miterlimit="10" rx="25.41176470588235" ry="25.363636363636367"/><rect width="668.3294117647059" height="253.63636363636365" x="746.4705882352941" y="634.0909090909091" fill="none" stroke="#404040" stroke-miterlimit="10" rx="25.41176470588235" ry="25.363636363636367"/><rect width="668.3294117647059" height="253.63636363636365" x="1445.294117647059" y="634.0909090909091" fill="none" stroke="#404040" stroke-miterlimit="10" rx="25.41176470588235" ry="25.363636363636367"/><rect width="668.3294117647059" height="253.63636363636365" x="47.64705882352941" y="887.7272727272729" fill="none" stroke="#404040" stroke-miterlimit="10" rx="25.41176470588235" ry="25.363636363636367"/><rect width="668.3294117647059" height="253.63636363636365" x="746.4705882352941" y="887.7272727272729" fill="none" stroke="#404040" stroke-miterlimit="10" rx="25.41176470588235" ry="25.363636363636367"/><rect width="668.3294117647059" height="253.63636363636365" x="1445.294117647059" y="887.7272727272729" fill="none" stroke="#404040" stroke-miterlimit="10" rx="25.41176470588235" ry="25.363636363636367"/><rect width="668.3294117647059" height="253.63636363636365" x="47.64705882352941" y="1141.3636363636365" fill="none" stroke="#404040" stroke-miterlimit="10" rx="25.41176470588235" ry="25.363636363636367"/><rect width="668.3294117647059" height="253.63636363636365" x="746.4705882352941" y="1141.3636363636365" fill="none" stroke="#404040" stroke-miterlimit="10" rx="25.41176470588235" ry="25.363636363636367"/><rect width="668.3294117647059" height="253.63636363636365" x="1445.294117647059" y="1141.3636363636365" fill="none" stroke="#404040" stroke-miterlimit="10" rx="25.41176470588235" ry="25.363636363636367"/><rect width="668.3294117647059" height="253.63636363636365" x="47.64705882352941" y="1395.0" fill="none" stroke="#404040" stroke-miterlimit="10" rx="25.41176470588235" ry="25.363636363636367"/><rect width="668.3294117647059" height="253.63636363636365" x="746.4705882352941" y="1395.0" fill="none" stroke="#404040" stroke-miterlimit="10" rx="25.41176470588235" ry="25.363636363636367"/><rect width="668.3294117647059" height="253.63636363636365" x="1445.294117647059" y="1395.0" fill="none" stroke="#404040" stroke-miterlimit="10" rx="25.41176470588235" ry="25.363636363636367"/><rect width="668.3294117647059" height="253.63636363636365" x="47.64705882352941" y="1648.6363636363637" fill="none" stroke="#404040" stroke-miterlimit="10" rx="25.41176470588235" ry="25.363636363636367"/><rect width="668.3294117647059" height="253.63636363636365" x="746.4705882352941" y="1648.6363636363637" fill="none" stroke="#404040" stroke-miterlimit="10" rx="25.41176470588235" ry="25.363636363636367"/><rect width="668.3294117647059" height="253.63636363636365" x="1445.294117647059" y="1648.6363636363637" fill="none" stroke="#404040" stroke-miterlimit="10" rx="25.41176470588235" ry="25.363636363636367"/><rect width="668.3294117647059" height="253.63636363636365" x="47.64705882352941" y="1902.2727272727273" fill="none" stroke="#404040" stroke-miterlimit="10" rx="25.41176470588235" ry="25.363636363636367"/><rect width="668.3294117647059" height="253.63636363636365" x="746.4705882352941" y="1902.2727272727273" fill="none" stroke="#404040" stroke-miterlimit="10" rx="25.41176470588235" ry="25.363636363636367"/><rect width="668.3294117647059" height="253.63636363636365" x="1445.294117647059" y="1902.2727272727273" fill="none" stroke="#404040" stroke-miterlimit="10" rx="25.41176470588235" ry="25.363636363636367"/><rect width="668.3294117647059" height="253.63636363636365" x="47.64705882352941" y="2155.909090909091" fill="none" stroke="#404040" stroke-miterlimit="10" rx="25.41176470588235" ry="25.363636363636367"/><rect width="668.3294117647059" height="253.63636363636365" x="746.4705882352941" y="2155.909090909091" fill="none" stroke="#404040" stroke-miterlimit="10" rx="25.41176470588235" ry="25.363636363636367"/><rect width="668.3294117647059" height="253.63636363636365" x="1445.294117647059" y="2155.909090909091" fill="none" stroke="#404040" stroke-miterlimit="10" rx="25.41176470588235" ry="25.363636363636367"/><rect width="668.3294117647059" height="253.63636363636365" x="47.64705882352941" y="2409.545454545455" fill="none" stroke="#404040" stroke-miterlimit="10" rx="25.41176470588235" ry="25.363636363636367"/><rect width="668.3294117647059" height="253.63636363636365" x="746.4705882352941" y="2409.545454545455" fill="none" stroke="#404040" stroke-miterlimit="10" rx="25.41176470588235" ry="25.363636363636367"/><rect width="668.3294117647059" height="253.63636363636365" x="1445.294117647059" y="2409.545454545455" fill="none" stroke="#404040" stroke-miterlimit="10" rx="25.41176470588235" ry="25.363636363636367"/><g><text x="85" y="894.0" dominant-baseline="hanging" font-family="&quot;EB Garamond&quot;,&quot;Times New Roman&quot;,serif" font-size="35" font-weight="700">Ravnica: Clue Edition</text><text x="85" y="934.0" dominant-baseline="hanging" font-family="&quot;Source Sans Pro&quot;,&quot;Helvetica Neue&quot;,Helvetica,Arial,sans-serif" font-size="25">CLU - February 2024</text><image width="70" height="70" x="610" y="899.0" href="clu.svg"/></g><rect width="668.3294117647059" height="253.63636363636365" x="47.64705882352941" y="126.81818181818183" fill="none" stroke="#404040" stroke-miterlimit="10" rx="25.41176470588235" ry="25.363636363636367"/><rect width="668.3294117647059" height="253.63636363636365" x="746.4705882352941" y="126.81818181818183" fill="none" stroke="#404040" stroke-miterlimit="10" rx="25.41176470588235" ry="25.363636363636367"/><rect width="668.3294117647059" height="253.63636363636365" x="1445.294117647059" y="126.81818181818183" fill="none" stroke="#404040" stroke-miterlimit="10" rx="25.41176470588235" ry="25.363636363636367"/><rect width="668.3294117647059" height="253.63636363636365" x="47.64705882352941" y="380.4545454545455" fill="none" stroke="#404040" stroke-miterlimit="10" rx="25.41176470588235" ry="25.363636363636367"/><rect width="668.3294117647059" height="253.63636363636365" x="746.4705882352941" y="380.4545454545455" fill="none" stroke="#404040" stroke-miterlimit="10" rx="25.41176470588235" ry="25.363636363636367"/><rect width="668.3294117647059" height="253.63636363636365" x="1445.294117647059" y="380.4545454545455" fill="none" stroke="#404040" stroke-miterlimit="10" rx="25.41176470588235" ry="25.363636363636367"/><rect width="668.3294117647059" height="253.63636363636365" x="47.64705882352941" y="634.0909090909091" fill="none" stroke="#404040" stroke-miterlimit="10" rx="25.41176470588235" ry="25.363636363636367"/><rect width="668.3294117647059" height="253.63636363636365" x="746.4705882352941" y="634.0909090909091" fill="none" stroke="#404040" stroke-miterlimit="10" rx="25.41176470588235" ry="25.363636363636367"/><rect width="668.3294117647059" height="253.63636363636365" x="1445.294117647059" y="634.0909090909091" fill="none" stroke="#404040" stroke-miterlimit="10" rx="25.41176470588235" ry="25.363636363636367"/><rect width="668.3294117647059" height="253.63636363636365" x="47.64705882352941" y="887.7272727272729" fill="none" stroke="#404040" stroke-miterlimit="10" rx="25.41176470588235" ry="25.363636363636367"/><rect width="668.3294117647059" height="253.63636363636365" x="746.4705882352941" y="887.7272727272729" fill="none" stroke="#404040" stroke-miterlimit="10" rx="25.41176470588235" ry="25.363636363636367"/><rect width="668.3294117647059" height="253.63636363636365" x="1445.294117647059" y="887.7272727272729" fill="none" stroke="#404040" stroke-miterlimit="10" rx="25.41176470588235" ry="25.363636363636367"/><rect width="668.3294117647059" height="253.63636363636365" x="47.64705882352941" y="1141.3636363636365" fill="none" stroke="#404040" stroke-miterlimit="10" rx="25.41176470588235" ry="25.363636363636367"/><rect width="668.3294117647059" height="253.63636363636365" x="746.4705882352941" y="1141.3636363636365" fill="none" stroke="#404040" stroke-miterlimit="10" rx="25.41176470588235" ry="25.363636363636367"/><rect width="668.3294117647059" height="253.63636363636365" x="1445.294117647059" y="1141.3636363636365" fill="none" stroke="#404040" stroke-miterlimit="10" rx="25.41176470588235" ry="25.363636363636367"/><rect width="668.3294117647059" height="253.63636363636365" x="47.64705882352941" y="1395.0" fill="none" stroke="#404040" stroke-miterlimit="10" rx="25.41176470588235" ry="25.363636363636367"/><rect width="668.3294117647059" height="253.63636363636365" x="746.4705882352941" y="1395.0" fill="none" stroke="#404040" stroke-miterlimit="10" rx="25.41176470588235" ry="25.363636363636367"/><rect width="668.3294117647059" height="253.63636363636365" x="1445.294117647059" y="1395.0" fill="none" stroke="#404040" stroke-miterlimit="10" rx="25.41176470588235" ry="25.363636363636367"/><rect width="668.3294117647059" height="253.63636363636365" x="47.64705882352941" y="1648.6363636363637" fill="none" stroke="#404040" stroke-miterlimit="10" rx="25.41176470588235" ry="25.363636363636367"/><rect width="668.3294117647059" height="253.63636363636365" x="746.4705882352941" y="1648.6363636363637" fill="none" stroke="#404040" stroke-miterlimit="10" rx="25.41176470588235" ry="25.363636363636367"/><rect width="668.3294117647059" height="253.63636363636365" x="1445.294117647059" y="1648.6363636363637" fill="none" stroke="#404040" stroke-miterlimit="10" rx="25.41176470588235" ry="25.363636363636367"/><rect width="668.3294117647059" height="253.63636363636365" x="47.64705882352941" y="1902.2727272727273" fill="none" stroke="#404040" stroke-miterlimit="10" rx="25.41176470588235" ry="25.363636363636367"/><rect width="668.3294117647059" height="253.63636363636365" x="746.4705882352941" y="1902.2727272727273" fill="none" stroke="#404040" stroke-miterlimit="10" rx="25.41176470588235" ry="25.363636363636367"/><rect width="668.3294117647059" height="253.63636363636365" x="1445.294117647059" y="1902.2727272727273" fill="none" stroke="#404040" stroke-miterlimit="10" rx="25.41176470588235" ry="25.363636363636367"/><rect width="668.3294117647059" height="253.63636363636365" x="47.64705882352941" y="2155.909090909091" fill="none" stroke="#404040" stroke-miterlimit="10" rx="25.41176470588235" ry="25.363636363636367"/><rect width="668.3294117647059" height="253.63636363636365" x="746.4705882352941" y="2155.909090909091" fill="none" stroke="#404040" stroke-miterlimit="10" rx="25.41176470588235" ry="25.363636363636367"/><rect width="668.3294117647059" height="253.63636363636365" x="1445.294117647059" y="2155.909090909091" fill="none" stroke="#404040" stroke-miterlimit="10" rx="25.41176470588235" ry="25.363636363636367"/><rect width="668.3294117647059" height="253.63636363636365" x="47.64705882352941" y="2409.545454545455" fill="none" stroke="#404040" stroke-miterlimit="10" rx="25.41176470588235" ry="25.363636363636367"/><rect width="668.3294117647059" height="253.63636363636365" x="746.4705882352941" y="2409.545454545455" fill="none" stroke="#404040" stroke-miterlimit="10" rx="25.41176470588235" ry="25.363636363636367"/><rect width="668.3294117647059" height="253.63636363636365" x="1445.294117647059" y="2409.545454545455" fill="none" stroke="#404040" stroke-miterlimit="10" rx="25.41176470588235" ry="25.363636363636367"/><g><text x="85" y="1147.0" dominant-baseline="hanging" font-family="&quot;EB Garamond&quot;,&quot;Times New Roman&quot;,serif" font-size="35" font-weight="700">Fallout</text><text x="85" y="1187.0" dominant-baseline="hanging" font-family="&quot;Source Sans Pro&quot;,&quot;Helvetica Neue&quot;,Helvetica,Arial,sans-serif" font-size="25">PIP - March 2024</text><image width="70" height="70" x="610" y="1152.0" href="pip.svg"/></g><rect width="668.3294117647059" height="253.63636363636365" x="47.64705882352941" y="126.81818181818183" fill="none" stroke="#404040" stroke-miterlimit="10" rx="25.41176470588235" ry="25.363636363636367"/><rect width="668.3294117647059" height="253.63636363636365" x="746.4705882352941" y="126.81818181818183" fill="none" stroke="#404040" stroke-miterlimit="10" rx="25.41176470588235" ry="25.363636363636367"/><rect width="668.3294117647059" height="253.63636363636365" x="1445.294117647059" y="126.81818181818183" fill="none" stroke="#404040" stroke-miterlimit="10" rx="25.41176470588235" ry="25.363636363636367"/><rect width="668.3294117647059" height="253.63636363636365" x="47.64705882352941" y="380.4545454545455" fill="none" stroke="#404040" stroke-miterlimit="10" rx="25.41176470588235" ry="25.363636363636367"/><rect width="668.3294117647059" height="253.63636363636365" x="746.4705882352941" y="380.4545454545455" fill="none" stroke="#404040" stroke-miterlimit="10" rx="25.41176470588235" ry="25.363636363636367"/><rect width="668.3294117647059" height="253.63636363636365" x="1445.294117647059" y="380.4545454545455" fill="none" stroke="#404040" stroke-miterlimit="10" rx="25.41176470588235" ry="25.363636363636367"/><rect width="668.3294117647059" height="253.63636363636365" x="47.64705882352941" y="634.0909090909091" fill="none" stroke="#404040" stroke-miterlimit="10" rx="25.41176470588235" ry="25.363636363636367"/><rect width="668.3294117647059" height="253.63636363636365" x="746.4705882352941" y="634.0909090909091" fill="none" stroke="#404040" stroke-miterlimit="10" rx="25.41176470588235" ry="25.363636363636367"/><rect width="668.3294117647059" height="253.63636363636365" x="1445.294117647059" y="634.0909090909091" fill="none" stroke="#404040" stroke-miterlimit="10" rx="25.41176470588235" ry="25.363636363636367"/><rect width="668.3294117647059" height="253.63636363636365" x="47.64705882352941" y="887.7272727272729" fill="none" stroke="#404040" stroke-miterlimit="10" rx="25.41176470588235" ry="25.363636363636367"/><rect width="668.3294117647059" height="253.63636363636365" x="746.4705882352941" y="887.7272727272729" fill="none" stroke="#404040" stroke-miterlimit="10" rx="25.41176470588235" ry="25.363636363636367"/><rect width="668.3294117647059" height="253.63636363636365" x="1445.294117647059" y="887.7272727272729" fill="none" stroke="#404040" stroke-miterlimit="10" rx="25.41176470588235" ry="25.363636363636367"/><rect width="668.3294117647059" height="253.63636363636365" x="47.64705882352941" y="1141.3636363636365" fill="none" stroke="#404040" stroke-miterlimit="10" rx="25.41176470588235" ry="25.363636363636367"/><rect width="668.3294117647059" height="253.63636363636365" x="746.4705882352941" y="1141.3636363636365" fill="none" stroke="#404040" stroke-miterlimit="10" rx="25.41176470588235" ry="25.363636363636367"/><rect width="668.3294117647059" height="253.63636363636365" x="1445.294117647059" y="1141.3636363636365" fill="none" stroke="#404040" stroke-miterlimit="10" rx="25.41176470588235" ry="25.363636363636367"/><rect width="668.3294117647059" height="253.63636363636365" x="47.64705882352941" y="1395.0" fill="none" stroke="#404040" stroke-miterlimit="10" rx="25.41176470588235" ry="25.363636363636367"/><rect width="668.3294117647059" height="253.63636363636365" x="746.4705882352941" y="1395.0" fill="none" stroke="#404040" stroke-miterlimit="10" rx="25.41176470588235" ry="25.363636363636367"/><rect width="668.3294117647059" height="253.63636363636365" x="1445.294117647059" y="1395.0" fill="none" stroke="#404040" stroke-miterlimit="10" rx="25.41176470588235" ry="25.363636363636367"/><rect width="668.3294117647059" height="253.63636363636365" x="47.64705882352941" y="1648.6363636363637" fill="none" stroke="#404040" stroke-miterlimit="10" rx="25.41176470588235" ry="25.363636363636367"/><rect width="668.3294117647059" height="253.63636363636365" x="746.4705882352941" y="1648.6363636363637" fill="none" stroke="#404040" stroke-miterlimit="10" rx="25.41176470588235" ry="25.363636363636367"/><rect width="668.3294117647059" height="253.63636363636365" x="1445.294117647059" y="1648.6363636363637" fill="none" stroke="#404040" stroke-miterlimit="10" rx="25.41176470588235" ry="25.363636363636367"/><rect width="668.3294117647059" height="253.63636363636365" x="47.64705882352941" y="1902.2727272727273" fill="none" stroke="#404040" stroke-miterlimit="10" rx="25.41176470588235" ry="25.363636363636367"/><rect width="668.3294117647059" height="253.63636363636365" x="746.4705882352941" y="1902.2727272727273" fill="none" stroke="#404040" stroke-miterlimit="10" rx="25.41176470588235" ry="25.363636363636367"/><rect width="668.3294117647059" height="253.63636363636365" x="1445.294117647059" y="1902.2727272727273" fill="none" stroke="#404040" stroke-miterlimit="10" rx="25.41176470588235" ry="25.363636363636367"/><rect width="668.3294117647059" height="253.63636363636365" x="47.64705882352941" y="2155.909090909091" fill="none" stroke="#404040" stroke-miterlimit="10" rx="25.41176470588235" ry="25.363636363636367"/><rect width="668.3294117647059" height="253.63636363636365" x="746.4705882352941" y="2155.909090909091" fill="none" stroke="#404040" stroke-miterlimit="10" rx="25.41176470588235" ry="25.363636363636367"/><rect width="668.3294117647059" height="253.63636363636365" x="1445.294117647059" y="2155.909090909091" fill="none" stroke="#404040" stroke-miterlimit="10" rx="25.41176470588235" ry="25.363636363636367"/><rect width="668.3294117647059" height="253.63636363636365" x="47.64705882352941" y="2409.545454545455" fill="none" stroke="#404040" stroke-miterlimit="10" rx="25.41176470588235" ry="25.363636363636367"/><rect width="668.3294117647059" height="253.63636363636365" x="746.4705882352941" y="2409.545454545455" fill="none" stroke="#404040" stroke-miterlimit="10" rx="25.41176470588235" ry="25.363636363636367"/><rect width="668.3294117647059" height="253.63636363636365" x="1445.294117647059" y="2409.545454545455" fill="none" stroke="#404040" stroke-miterlimit="10" rx="25.41176470588235" ry="25.363636363636367"/><g><text x="85" y="1400.0" dominant-baseline="hanging" font-family="&quot;EB Garamond&quot;,&quot;Times New Roman&quot;,serif" font-size="35" font-weight="700">Outlaws of Thunder Junction Commander</text><text x="85" y="1440.0" dominant-baseline="hanging" font-family="&quot;Source Sans Pro&quot;,&quot;Helvetica Neue&quot;,Helvetica,Arial,sans-serif" font-size="25">OTC - April 2024</text><image width="70" height="70" x="610" y="1405.0" href="otc.svg"/></g><rect width="668.3294117647059" height="253.63636363636365" x="47.64705882352941" y="126.81818181818183" fill="none" stroke="#404040" stroke-miterlimit="10" rx="25.41176470588235" ry="25.363636363636367"/><rect width="668.3294117647059" height="253.63636363636365" x="746.4705882352941" y="126.81818181818183" fill="none" stroke="#404040" stroke-miterlimit="10" rx="25.41176470588235" ry="25.363636363636367"/><rect width="668.3294117647059" height="253.63636363636365" x="1445.294117647059" y="126.81818181818183" fill="none" stroke="#404040" stroke-miterlimit="10" rx="25.41176470588235" ry="25.363636363636367"/><rect width="668.3294117647059" height="253.63636363636365" x="47.64705882352941" y="380.4545454545455" fill="none" stroke="#404040" stroke-miterlimit="10" rx="25.41176470588235" ry="25.363636363636367"/><rect width="668.3294117647059" height="253.63636363636365" x="746.4705882352941" y="380.4545454545455" fill="none" stroke="#404040" stroke-miterlimit="10" rx="25.41176470588235" ry="25.363636363636367"/><rect width="668.3294117647059" height="253.63636363636365" x="1445.294117647059" y="380.4545454545455" fill="none" stroke="#404040" stroke-miterlimit="10" rx="25.41176470588235" ry="25.363636363636367"/><rect width="668.3294117647059" height="253.63636363636365" x="47.64705882352941" y="634.0909090909091" fill="none" stroke="#404040" stroke-miterlimit="10" rx="25.41176470588235" ry="25.363636363636367"/><rect width="668.3294117647059" height="253.63636363636365" x="746.4705882352941" y="634.0909090909091" fill="none" stroke="#404040" stroke-miterlimit="10" rx="25.41176470588235" ry="25.363636363636367"/><rect width="668.3294117647059" height="253.63636363636365" x="1445.294117647059" y="634.0909090909091" fill="none" stroke="#404040" stroke-miterlimit="10" rx="25.41176470588235" ry="25.363636363636367"/><rect width="668.3294117647059" height="253.63636363636365" x="47.64705882352941" y="887.7272727272729" fill="none" stroke="#404040" stroke-miterlimit="10" rx="25.41176470588235" ry="25.363636363636367"/><rect width="668.3294117647059" height="253.63636363636365" x="746.4705882352941" y="887.7272727272729" fill="none" stroke="#404040" stroke-miterlimit="10" rx="25.41176470588235" ry="25.363636363636367"/><rect width="668.3294117647059" height="253.63636363636365" x="1445.294117647059" y="887.7272727272729" fill="none" stroke="#404040" stroke-miterlimit="10" rx="25.41176470588235" ry="25.363636363636367"/><rect width="668.3294117647059" height="253.63636363636365" x="47.64705882352941" y="1141.3636363636365" fill="none" stroke="#404040" stroke-miterlimit="10" rx="25.41176470588235" ry="25.363636363636367"/><rect width="668.3294117647059" height="253.63636363636365" x="746.4705882352941" y="1141.3636363636365" fill="none" stroke="#404040" stroke-miterlimit="10" rx="25.41176470588235" ry="25.363636363636367"/><rect width="668.3294117647059" height="253.63636363636365" x="1445.294117647059" y="1141.3636363636365" fill="none" stroke="#404040" stroke-miterlimit="10" rx="25.41176470588235" ry="25.363636363636367"/><rect width="668.3294117647059" height="253.63636363636365" x="47.64705882352941" y="1395.0" fill="none" stroke="#404040" stroke-miterlimit="10" rx="25.41176470588235" ry="25.363636363636367"/><rect width="668.3294117647059" height="253.63636363636365" x="746.4705882352941" y="1395.0" fill="none" stroke="#404040" stroke-miterlimit="10" rx="25.41176470588235" ry="25.363636363636367"/><rect width="668.3294117647059" height="253.63636363636365" x="1445.294117647059" y="1395.0" fill="none" stroke="#404040" stroke-miterlimit="10" rx="25.41176470588235" ry="25.363636363636367"/><rect width="668.3294117647059" height="253.63636363636365" x="47.64705882352941" y="1648.6363636363637" fill="none" stroke="#404040" stroke-miterlimit="10" rx="25.41176470588235" ry="25.363636363636367"/><rect width="668.3294117647059" height="253.63636363636365" x="746.4705882352941" y="1648.6363636363637" fill="none" stroke="#404040" stroke-miterlimit="10" rx="25.41176470588235" ry="25.363636363636367"/><rect width="668.3294117647059" height="253.63636363636365" x="1445.294117647059" y="1648.6363636363637" fill="none" stroke="#404040" stroke-miterlimit="10" rx="25.41176470588235" ry="25.363636363636367"/><rect width="668.3294117647059" height="253.63636363636365" x="47.64705882352941" y="1902.2727272727273" fill="none" stroke="#404040" stroke-miterlimit="10" rx="25.41176470588235" ry="25.363636363636367"/><rect width="668.3294117647059" height="253.63636363636365" x="746.4705882352941" y="1902.2727272727273" fill="none" stroke="#404040" stroke-miterlimit="10" rx="25.41176470588235" ry="25.363636363636367"/><rect width="668.3294117647059" height="253.63636363636365" x="1445.294117647059" y="1902.2727272727273" fill="none" stroke="#404040" stroke-miterlimit="10" rx="25.41176470588235" ry="25.363636363636367"/><rect width="668.3294117647059" height="253.63636363636365" x="47.64705882352941" y="2155.909090909091" fill="none" stroke="#404040" stroke-miterlimit="10" rx="25.41176470588235" ry="25.363636363636367"/><rect width="668.3294117647059" height="253.63636363636365" x="746.4705882352941" y="2155.909090909091" fill="none" stroke="#404040" stroke-miterlimit="10" rx="25.41176470588235" ry="25.363636363636367"/><rect width="668.3294117647059" height="253.63636363636365" x="1445.294117647059" y="2155.909090909091" fill="none" stroke="#404040" stroke-miterlimit="10" rx="25.41176470588235" ry="25.363636363636367"/><rect width="668.3294117647059" height="253.63636363636365" x="47.64705882352941" y="2409.545454545455" fill="none" stroke="#404040" stroke-miterlimit="10" rx="25.41176470588235" ry="25.363636363636367"/><rect width="668.3294117647059" height="253.63636363636365" x="746.4705882352941" y="2409.545454545455" fill="none" stroke="#404040" stroke-miterlimit="10" rx="25.41176470588235" ry="25.363636363636367"/><rect width="668.3294117647059" height="253.63636363636365" x="1445.294117647059" y="2409.545454545455" fill="none" stroke="#404040" stroke-miterlimit="10" rx="25.41176470588235" ry="25.363636363636367"/><g><text x="85" y="1653.0" dominant-baseline="hanging" font-family="&quot;EB Garamond&quot;,&quot;Times New Roman&quot;,serif" font-size="35" font-weight="700">The Big Score</text><text x="85" y="1693.0" dominant-baseline="hanging" font-family="&quot;Source Sans Pro&quot;,&quot;Helvetica Neue&quot;,Helvetica,Arial,sans-serif" font-size="25">BIG - April 2024</text><image width="70" height="70" x="610" y="1658.0" href="big.svg"/></g><rect width="668.3294117647059" height="253.63636363636365" x="47.64705882352941" y="126.81818181818183" fill="none" stroke="#404040" stroke-miterlimit="10" rx="25.41176470588235" ry="25.363636363636367"/><rect width="668.3294117647059" height="253.63636363636365" x="746.4705882352941" y="126.81818181818183" fill="none" stroke="#404040" stroke-miterlimit="10" rx="25.41176470588235" ry="25.363636363636367"/><rect width="668.3294117647059" height="253.63636363636365" x="1445.294117647059" y="126.81818181818183" fill="none" stroke="#404040" stroke-miterlimit="10" rx="25.41176470588235" ry="25.363636363636367"/><rect width="668.3294117647059" height="253.63636363636365" x="47.64705882352941" y="380.4545454545455" fill="none" stroke="#404040" stroke-miterlimit="10" rx="25.41176470588235" ry="25.363636363636367"/><rect width="668.3294117647059" height="253.63636363636365" x="746.4705882352941" y="380.4545454545455" fill="none" stroke="#404040" stroke-miterlimit="10" rx="25.41176470588235" ry="25.363636363636367"/><rect width="668.3294117647059" height="253.63636363636365" x="1445.294117647059" y="380.4545454545455" fill="none" stroke="#404040" stroke-miterlimit="10" rx="25.41176470588235" ry="25.363636363636367"/><rect width="668.3294117647059" height="253.63636363636365" x="47.64705882352941" y="634.0909090909091" fill="none" stroke="#404040" stroke-miterlimit="10" rx="25.41176470588235" ry="25.363636363636367"/><rect width="668.3294117647059" height="253.63636363636365" x="746.4705882352941" y="634.0909090909091" fill="none" stroke="#404040" stroke-miterlimit="10" rx="25.41176470588235" ry="25.363636363636367"/><rect width="668.3294117647059" height="253.63636363636365" x="1445.294117647059" y="634.0909090909091" fill="none" stroke="#404040" stroke-miterlimit="10" rx="25.41176470588235" ry="25.363636363636367"/><rect width="668.3294117647059" height="253.63636363636365" x="47.64705882352941" y="887.7272727272729" fill="none" stroke="#404040" stroke-miterlimit="10" rx="25.41176470588235" ry="25.363636363636367"/><rect width="668.3294117647059" height="253.63636363636365" x="746.4705882352941" y="887.7272727272729" fill="none" stroke="#404040" stroke-miterlimit="10" rx="25.41176470588235" ry="25.363636363636367"/><rect width="668.3294117647059" height="253.63636363636365" x="1445.294117647059" y="887.7272727272729" fill="none" stroke="#404040" stroke-miterlimit="10" rx="25.41176470588235" ry="25.363636363636367"/><rect width="668.3294117647059" height="253.63636363636365" x="47.64705882352941" y="1141.3636363636365" fill="none" stroke="#404040" stroke-miterlimit="10" rx="25.41176470588235" ry="25.363636363636367"/><rect width="668.3294117647059" height="253.63636363636365" x="746.4705882352941" y="1141.3636363636365" fill="none" stroke="#404040" stroke-miterlimit="10" rx="25.41176470588235" ry="25.363636363636367"/><rect width="668.3294117647059" height="253.63636363636365" x="1445.294117647059" y="1141.3636363636365" fill="none" stroke="#404040" stroke-miterlimit="10" rx="25.41176470588235" ry="25.363636363636367"/><rect width="668.3294117647059" height="253.63636363636365" x="47.64705882352941" y="1395.0" fill="none" stroke="#404040" stroke-miterlimit="10" rx="25.41176470588235" ry="25.363636363636367"/><rect width="668.3294117647059" height="253.63636363636365" x="746.4705882352941" y="1395.0" fill="none" stroke="#404040" stroke-miterlimit="10" rx="25.41176470588235" ry="25.363636363636367"/><rect width="668.3294117647059" height="253.63636363636365" x="1445.294117647059" y="1395.0" fill="none" stroke="#404040" stroke-miterlimit="10" rx="25.41176470588235" ry="25.363636363636367"/><rect width="668.3294117647059" height="253.63636363636365" x="47.64705882352941" y="1648.6363636363637" fill="none" stroke="#404040" stroke-miterlimit="10" rx="25.41176470588235" ry="25.363636363636367"/><rect width="668.3294117647059" height="253.63636363636365" x="746.4705882352941" y="1648.6363636363637" fill="none" stroke="#404040" stroke-miterlimit="10" rx="25.41176470588235" ry="25.363636363636367"/><rect width="668.3294117647059" height="253.63636363636365" x="1445.294117647059" y="1648.6363636363637" fill="none" stroke="#404040" stroke-miterlimit="10" rx="25.41176470588235" ry="25.363636363636367"/><rect width="668.3294117647059" height="253.63636363636365" x="47.64705882352941" y="1902.2727272727273" fill="none" stroke="#404040" stroke-miterlimit="10" rx="25.41176470588235" ry="25.363636363636367"/><rect width="668.3294117647059" height="253.63636363636365" x="746.4705882352941" y="1902.2727272727273" fill="none" stroke="#404040" stroke-miterlimit="10" rx="25.41176470588235" ry="25.363636363636367"/><rect width="668.3294117647059" height="253.63636363636365" x="1445.294117647059" y="1902.2727272727273" fill="none" stroke="#404040" stroke-miterlimit="10" rx="25.41176470588235" ry="25.363636363636367"/><rect width="668.3294117647059" height="253.63636363636365" x="47.64705882352941" y="2155.909090909091" fill="none" stroke="#404040" stroke-miterlimit="10" rx="25.41176470588235" ry="25.363636363636367"/><rect width="668.3294117647059" height="253.63636363636365" x="746.4705882352941" y="2155.909090909091" fill="none" stroke="#404040" stroke-miterlimit="10" rx="25.41176470588235" ry="25.363636363636367"/><rect width="668.3294117647059" height="253.63636363636365" x="1445.294117647059" y="2155.909090909091" fill="none" stroke="#404040" stroke-miterlimit="10" rx="25.41176470588235" ry="25.363636363636367"/><rect width="668.3294117647059" height="253.63636363636365" x="47.64705882352941" y="2409.545454545455" fill="none" stroke="#404040" stroke-miterlimit="10" rx="25.41176470588235" ry="25.363636363636367"/><rect width="668.3294117647059" height="253.63636363636365" x="746.4705882352941" y="2409.545454545455" fill="none" stroke="#404040" stroke-miterlimit="10" rx="25.41176470588235" ry="25.363636363636367"/><rect width="668.3294117647059" height="253.63636363636365" x="1445.294117647059" y="2409.545454545455" fill="none" stroke="#404040" stroke-miterlimit="10" rx="25.41176470588235" ry="25.363636363636367"/><g><text x="85" y="1906.0" dominant-baseline="hanging" font-family="&quot;EB Garamond&quot;,&quot;Times New Roman&quot;,serif" font-size="35" font-weight="700">Outlaws of Thunder Junction</text><text x="85" y="1946.0" dominant-baseline="hanging" font-family="&quot;Source Sans Pro&quot;,&quot;Helvetica Neue&quot;,Helvetica,Arial,sans-serif" font-size="25">OTJ - April 2024</text><image width="70" height="70" x="610" y="1911.0" href="otj.svg"/></g><rect width="668.3294117647059" height="253.63636363636365" x="47.64705882352941" y="126.81818181818183" fill="none" stroke="#404040" stroke-miterlimit="10" rx="25.41176470588235" ry="25.363636363636367"/><rect width="668.3294117647059" height="253.63636363636365" x="746.4705882352941" y="126.81818181818183" fill="none" stroke="#404040" stroke-miterlimit="10" rx="25.41176470588235" ry="25.363636363636367"/><rect width="668.3294117647059" height="253.63636363636365" x="1445.294117647059" y="126.81818181818183" fill="none" stroke="#404040" stroke-miterlimit="10" rx="25.41176470588235" ry="25.363636363636367"/><rect width="668.3294117647059" height="253.63636363636365" x="47.64705882352941" y="380.4545454545455" fill="none" stroke="#404040" stroke-miterlimit="10" rx="25.41176470588235" ry="25.363636363636367"/><rect width="668.3294117647059" height="253.63636363636365" x="746.4705882352941" y="380.4545454545455" fill="none" stroke="#404040" stroke-miterlimit="10" rx="25.41176470588235" ry="25.363636363636367"/><rect width="668.3294117647059" height="253.63636363636365" x="1445.294117647059" y="380.4545454545455" fill="none" stroke="#404040" stroke-miterlimit="10" rx="25.41176470588235" ry="25.363636363636367"/><rect width="668.3294117647059" height="253.63636363636365" x="47.64705882352941" y="634.0909090909091" fill="none" stroke="#404040" stroke-miterlimit="10" rx="25.41176470588235" ry="25.363636363636367"/><rect width="668.3294117647059" height="253.63636363636365" x="746.4705882352941" y="634.0909090909091" fill="none" stroke="#404040" stroke-miterlimit="10" rx="25.41176470588235" ry="25.363636363636367"/><rect width="668.3294117647059" height="253.63636363636365" x="1445.294117647059" y="634.0909090909091" fill="none" stroke="#404040" stroke-miterlimit="10" rx="25.41176470588235" ry="25.363636363636367"/><rect width="668.3294117647059" height="253.63636363636365" x="47.64705882352941" y="887.7272727272729" fill="none" stroke="#404040" stroke-miterlimit="10" rx="25.41176470588235" ry="25.363636363636367"/><rect width="668.3294117647059" height="253.63636363636365" x="746.4705882352941" y="887.7272727272729" fill="none" stroke="#404040" stroke-miterlimit="10" rx="25.41176470588235" ry="25.363636363636367"/><rect width="668.3294117647059" height="253.63636363636365" x="1445.294117647059" y="887.7272727272729" fill="none" stroke="#404040" stroke-miterlimit="10" rx="25.41176470588235" ry="25.363636363636367"/><rect width="668.3294117647059" height="253.63636363636365" x="47.64705882352941" y="1141.3636363636365" fill="none" stroke="#404040" stroke-miterlimit="10" rx="25.41176470588235" ry="25.363636363636367"/><rect width="668.3294117647059" height="253.63636363636365" x="746.4705882352941" y="1141.3636363636365" fill="none" stroke="#404040" stroke-miterlimit="10" rx="25.41176470588235" ry="25.363636363636367"/><rect width="668.3294117647059" height="253.63636363636365" x="1445.294117647059" y="1141.3636363636365" fill="none" stroke="#404040" stroke-miterlimit="10" rx="25.41176470588235" ry="25.363636363636367"/><rect width="668.3294117647059" height="253.63636363636365" x="47.64705882352941" y="1395.0" fill="none" stroke="#404040" stroke-miterlimit="10" rx="25.41176470588235" ry="25.363636363636367"/><rect width="668.3294117647059" height="253.63636363636365" x="746.4705882352941" y="1395.0" fill="none" stroke="#404040" stroke-miterlimit="10" rx="25.41176470588235" ry="25.363636363636367"/><rect width="668.3294117647059" height="253.63636363636365" x="1445.294117647059" y="1395.0" fill="none" stroke="#404040" stroke-miterlimit="10" rx="25.41176470588235" ry="25.363636363636367"/><rect width="668.3294117647059" height="253.63636363636365" x="47.64705882352941" y="1648.6363636363637" fill="none" stroke="#404040" stroke-miterlimit="10" rx="25.41176470588235" ry="25.363636363636367"/><rect width="668.3294117647059" height="253.63636363636365" x="746.4705882352941" y="1648.6363636363637" fill="none" stroke="#404040" stroke-miterlimit="10" rx="25.41176470588235" ry="25.363636363636367"/><rect width="668.3294117647059" height="253.63636363636365" x="1445.294117647059" y="1648.6363636363637" fill="none" stroke="#404040" stroke-miterlimit="10" rx="25.41176470588235" ry="25.363636363636367"/><rect width="668.3294117647059" height="253.63636363636365" x="47.64705882352941" y="1902.2727272727273" fill="none" stroke="#404040" stroke-miterlimit="10" rx="25.41176470588235" ry="25.363636363636367"/><rect width="668.3294117647059" height="253.63636363636365" x="746.4705882352941" y="1902.2727272727273" fill="none" stroke="#404040" stroke-miterlimit="10" rx="25.41176470588235" ry="25.363636363636367"/><rect width="668.3294117647059" height="253.63636363636365" x="1445.294117647059" y="1902.2727272727273" fill="none" stroke="#404040" stroke-miterlimit="10" rx="25.41176470588235" ry="25.363636363636367"/><rect width="668.3294117647059" height="253.63636363636365" x="47.64705882352941" y="2155.909090909091" fill="none" stroke="#404040" stroke-miterlimit="10" rx="25.41176470588235" ry="25.363636363636367"/><rect width="668.3294117647059" height="253.63636363636365" x="746.4705882352941" y="2155.909090909091" fill="none" stroke="#404040" stroke-miterlimit="10" rx="25.41176470588235" ry="25.363636363636367"/><rect width="668.3294117647059" height="253.63636363636365" x="1445.294117647059" y="2155.909090909091" fill="none" stroke="#404040" stroke-miterlimit="10" rx="25.41176470588235" ry="25.363636363636367"/><rect width="668.3294117647059" height="253.63636363636365" x="47.64705882352941" y="2409.545454545455" fill="none" stroke="#404040" stroke-miterlimit="10" rx="25.41176470588235" ry="25.363636363636367"/><rect width="668.3294117647059" height="253.63636363636365" x="746.4705882352941" y="2409.545454545455" fill="none" stroke="#404040" stroke-miterlimit="10" rx="25.41176470588235" ry="25.363636363636367"/><rect width="668.3294117647059" height="253.63636363636365" x="1445.294117647059" y="2409.545454545455" fill="none" stroke="#404040" stroke-miterlimit="10" rx="25.41176470588235" ry="25.363636363636367"/><g><text x="85" y="2159.0" dominant-baseline="hanging" font-family="&quot;EB Garamond&quot;,&quot;Times New Roman&quot;,serif" font-size="35" font-weight="700">Breaking News</text><text x="85" y="2199.0" dominant-baseline="hanging" font-family="&quot;Source Sans Pro&quot;,&quot;Helvetica Neue&quot;,Helvetica,Arial,sans-serif" font-size="25">OTP - April 2024</text><image width="70" height="70" x="610" y="2164.0" href="otp.svg"/></g><rect width="668.3294117647059" height="253.63636363636365" x="47.64705882352941" y="126.81818181818183" fill="none" stroke="#404040" stroke-miterlimit="10" rx="25.41176470588235" ry="25.363636363636367"/><rect width="668.3294117647059" height="253.63636363636365" x="746.4705882352941" y="126.81818181818183" fill="none" stroke="#404040" stroke-miterlimit="10" rx="25.41176470588235" ry="25.363636363636367"/><rect width="668.3294117647059" height="253.63636363636365" x="1445.294117647059" y="126.81818181818183" fill="none" stroke="#404040" stroke-miterlimit="10" rx="25.41176470588235" ry="25.363636363636367"/><rect width="668.3294117647059" height="253.63636363636365" x="47.64705882352941" y="380.4545454545455" fill="none" stroke="#404040" stroke-miterlimit="10" rx="25.41176470588235" ry="25.363636363636367"/><rect width="668.3294117647059" height="253.63636363636365" x="746.4705882352941" y="380.4545454545455" fill="none" stroke="#404040" stroke-miterlimit="10" rx="25.41176470588235" ry="25.363636363636367"/><rect width="668.3294117647059" height="253.63636363636365" x="1445.294117647059" y="380.4545454545455" fill="none" stroke="#404040" stroke-miterlimit="10" rx="25.41176470588235" ry="25.363636363636367"/><rect width="668.3294117647059" height="253.63636363636365" x="47.64705882352941" y="634.0909090909091" fill="none" stroke="#404040" stroke-miterlimit="10" rx="25.41176470588235" ry="25.363636363636367"/><rect width="668.3294117647059" height="253.63636363636365" x="746.4705882352941" y="634.0909090909091" fill="none" stroke="#404040" stroke-miterlimit="10" rx="25.41176470588235" ry="25.363636363636367"/><rect width="668.3294117647059" height="253.63636363636365" x="1445.294117647059" y="634.0909090909091" fill="none" stroke="#404040" stroke-miterlimit="10" rx="25.41176470588235" ry="25.363636363636367"/><rect width="668.3294117647059" height="253.63636363636365" x="47.64705882352941" y="887.7272727272729" fill="none" stroke="#404040" stroke-miterlimit="10" rx="25.41176470588235" ry="25.363636363636367"/><rect width="668.3294117647059" height="253.63636363636365" x="746.4705882352941" y="887.7272727272729" fill="none" stroke="#404040" stroke-miterlimit="10" rx="25.41176470588235" ry="25.363636363636367"/><rect width="668.3294117647059" height="253.63636363636365" x="1445.294117647059" y="887.7272727272729" fill="none" stroke="#404040" stroke-miterlimit="10" rx="25.41176470588235" ry="25.363636363636367"/><rect width="668.3294117647059" height="253.63636363636365" x="47.64705882352941" y="1141.3636363636365" fill="none" stroke="#404040" stroke-miterlimit="10" rx="25.41176470588235" ry="25.363636363636367"/><rect width="668.3294117647059" height="253.63636363636365" x="746.4705882352941" y="1141.3636363636365" fill="none" stroke="#404040" stroke-miterlimit="10" rx="25.41176470588235" ry="25.363636363636367"/><rect width="668.3294117647059" height="253.63636363636365" x="1445.294117647059" y="1141.3636363636365" fill="none" stroke="#404040" stroke-miterlimit="10" rx="25.41176470588235" ry="25.363636363636367"/><rect width="668.3294117647059" height="253.63636363636365" x="47.64705882352941" y="1395.0" fill="none" stroke="#404040" stroke-miterlimit="10" rx="25.41176470588235" ry="25.363636363636367"/><rect width="668.3294117647059" height="253.63636363636365" x="746.4705882352941" y="1395.0" fill="none" stroke="#404040" stroke-miterlimit="10" rx="25.41176470588235" ry="25.363636363636367"/><rect width="668.3294117647059" height="253.63636363636365" x="1445.294117647059" y="1395.0" fill="none" stroke="#404040" stroke-miterlimit="10" rx="25.41176470588235" ry="25.363636363636367"/><rect width="668.3294117647059" height="253.63636363636365" x="47.64705882352941" y="1648.6363636363637" fill="none" stroke="#404040" stroke-miterlimit="10" rx="25.41176470588235" ry="25.363636363636367"/><rect width="668.3294117647059" height="253.63636363636365" x="746.4705882352941" y="1648.6363636363637" fill="none" stroke="#404040" stroke-miterlimit="10" rx="25.41176470588235" ry="25.363636363636367"/><rect width="668.3294117647059" height="253.63636363636365" x="1445.294117647059" y="1648.6363636363637" fill="none" stroke="#404040" stroke-miterlimit="10" rx="25.41176470588235" ry="25.363636363636367"/><rect width="668.3294117647059" height="253.63636363636365" x="47.64705882352941" y="1902.2727272727273" fill="none" stroke="#404040" stroke-miterlimit="10" rx="25.41176470588235" ry="25.363636363636367"/><rect width="668.3294117647059" height="253.63636363636365" x="746.4705882352941" y="1902.2727272727273" fill="none" stroke="#404040" stroke-miterlimit="10" rx="25.41176470588235" ry="25.363636363636367"/><rect width="668.3294117647059" height="253.63636363636365" x="1445.294117647059" y="1902.2727272727273" fill="none" stroke="#404040" stroke-miterlimit="10" rx="25.41176470588235" ry="25.363636363636367"/><rect width="668.3294117647059" height="253.63636363636365" x="47.64705882352941" y="2155.909090909091" fill="none" stroke="#404040" stroke-miterlimit="10" rx="25.41176470588235" ry="25.363636363636367"/><rect width="668.3294117647059" height="253.63636363636365" x="746.4705882352941" y="2155.909090909091" fill="none" stroke="#404040" stroke-miterlimit="10" rx="25.41176470588235" ry="25.363636363636367"/><rect width="668.3294117647059" height="253.63636363636365" x="1445.294117647059" y="2155.909090909091" fill="none" stroke="#404040" stroke-miterlimit="10" rx="25.41176470588235" ry="25.363636363636367"/><rect width="668.3294117647059" height="253.63636363636365" x="47.64705882352941" y="2409.545454545455" fill="none" stroke="#404040" stroke-miterlimit="10" rx="25.41176470588235" ry="25.363636363636367"/><rect width="668.3294117647059" height="253.63636363636365" x="746.4705882352941" y="2409.545454545455" fill="none" stroke="#404040" stroke-miterlimit="10" rx="25.41176470588235" ry="25.363636363636367"/><rect width="668.3294117647059" height="253.63636363636365" x="1445.294117647059" y="2409.545454545455" fill="none" stroke="#404040" stroke-miterlimit="10" rx="25.41176470588235" ry="25.363636363636367"/><g><text x="85" y="2412.0" dominant-baseline="hanging" font-family="&quot;EB Garamond&quot;,&quot;Times New Roman&quot;,serif" font-size="35" font-weight="700">Modern Horizons 2 Timeshifts</text><text x="85" y="2452.0" dominant-baseline="hanging" font-family="&quot;Source Sans Pro&quot;,&quot;Helvetica Neue&quot;,Helvetica,Arial,sans-serif" font-size="25">H2R - June 2024</text><image width="70" height="70" x="610" y="2417.0" href="mh2.svg"/></g><rect width="668.3294117647059" height="253.63636363636365" x="47.64705882352941" y="126.81818181818183" fill="none" stroke="#404040" stroke-miterlimit="10" rx="25.41176470588235" ry="25.363636363636367"/><rect width="668.3294117647059" height="253.63636363636365" x="746.4705882352941" y="126.81818181818183" fill="none" stroke="#404040" stroke-miterlimit="10" rx="25.41176470588235" ry="25.363636363636367"/><rect width="668.3294117647059" height="253.63636363636365" x="1445.294117647059" y="126.81818181818183" fill="none" stroke="#404040" stroke-miterlimit="10" rx="25.41176470588235" ry="25.363636363636367"/><rect width="668.3294117647059" height="253.63636363636365" x="47.64705882352941" y="380.4545454545455" fill="none" stroke="#404040" stroke-miterlimit="10" rx="25.41176470588235" ry="25.363636363636367"/><rect width="668.3294117647059" height="253.63636363636365" x="746.4705882352941" y="380.4545454545455" fill="none" stroke="#404040" stroke-miterlimit="10" rx="25.41176470588235" ry="25.363636363636367"/><rect width="668.3294117647059" height="253.63636363636365" x="1445.294117647059" y="380.4545454545455" fill="none" stroke="#404040" stroke-miterlimit="10" rx="25.41176470588235" ry="25.363636363636367"/><rect width="668.3294117647059" height="253.63636363636365" x="47.64705882352941" y="634.0909090909091" fill="none" stroke="#404040" stroke-miterlimit="10" rx="25.41176470588235" ry="25.363636363636367"/><rect width="668.3294117647059" height="253.63636363636365" x="746.4705882352941" y="634.0909090909091" fill="none" stroke="#404040" stroke-miterlimit="10" rx="25.41176470588235" ry="25.363636363636367"/><rect width="668.3294117647059" height="253.63636363636365" x="1445.294117647059" y="634.0909090909091" fill="none" stroke="#404040" stroke-miterlimit="10" rx="25.41176470588235" ry="25.363636363636367"/><rect width="668.3294117647059" height="253.63636363636365" x="47.64705882352941" y="887.7272727272729" fill="none" stroke="#404040" stroke-miterlimit="10" rx="25.41176470588235" ry="25.363636363636367"/><rect width="668.3294117647059" height="253.63636363636365" x="746.4705882352941" y="887.7272727272729" fill="none" stroke="#404040" stroke-miterlimit="10" rx="25.41176470588235" ry="25.363636363636367"/><rect width="668.3294117647059" height="253.63636363636365" x="1445.294117647059" y="887.7272727272729" fill="none" stroke="#404040" stroke-miterlimit="10" rx="25.41176470588235" ry="25.363636363636367"/><rect width="668.3294117647059" height="253.63636363636365" x="47.64705882352941" y="1141.3636363636365" fill="none" stroke="#404040" stroke-miterlimit="10" rx="25.41176470588235" ry="25.363636363636367"/><rect width="668.3294117647059" height="253.63636363636365" x="746.4705882352941" y="1141.3636363636365" fill="none" stroke="#404040" stroke-miterlimit="10" rx="25.41176470588235" ry="25.363636363636367"/><rect width="668.3294117647059" height="253.63636363636365" x="1445.294117647059" y="1141.3636363636365" fill="none" stroke="#404040" stroke-miterlimit="10" rx="25.41176470588235" ry="25.363636363636367"/><rect width="668.3294117647059" height="253.63636363636365" x="47.64705882352941" y="1395.0" fill="none" stroke="#404040" stroke-miterlimit="10" rx="25.41176470588235" ry="25.363636363636367"/><rect width="668.3294117647059" height="253.63636363636365" x="746.4705882352941" y="1395.0" fill="none" stroke="#404040" stroke-miterlimit="10" rx="25.41176470588235" ry="25.363636363636367"/><rect width="668.3294117647059" height="253.63636363636365" x="1445.294117647059" y="1395.0" fill="none" stroke="#404040" stroke-miterlimit="10" rx="25.41176470588235" ry="25.363636363636367"/><rect width="668.3294117647059" height="253.63636363636365" x="47.64705882352941" y="1648.6363636363637" fill="none" stroke="#404040" stroke-miterlimit="10" rx="25.41176470588235" ry="25.363636363636367"/><rect width="668.3294117647059" height="253.63636363636365" x="746.4705882352941" y="1648.6363636363637" fill="none" stroke="#404040" stroke-miterlimit="10" rx="25.41176470588235" ry="25.363636363636367"/><rect width="668.3294117647059" height="253.63636363636365" x="1445.294117647059" y="1648.6363636363637" fill="none" stroke="#404040" stroke-miterlimit="10" rx="25.41176470588235" ry="25.363636363636367"/><rect width="668.3294117647059" height="253.63636363636365" x="47.64705882352941" y="1902.2727272727273" fill="none" stroke="#404040" stroke-miterlimit="10" rx="25.41176470588235" ry="25.363636363636367"/><rect width="668.3294117647059" height="253.63636363636365" x="746.4705882352941" y="1902.2727272727273" fill="none" stroke="#404040" stroke-miterlimit="10" rx="25.41176470588235" ry="25.363636363636367"/><rect width="668.3294117647059" height="253.63636363636365" x="1445.294117647059" y="1902.2727272727273" fill="none" stroke="#404040" stroke-miterlimit="10" rx="25.41176470588235" ry="25.363636363636367"/><rect width="668.3294117647059" height="253.63636363636365" x="47.64705882352941" y="2155.909090909091" fill="none" stroke="#404040" stroke-miterlimit="10" rx="25.41176470588235" ry="25.363636363636367"/><rect width="668.3294117647059" height="253.63636363636365" x="746.4705882352941" y="2155.909090909091" fill="none" stroke="#404040" stroke-miterlimit="10" rx="25.41176470588235" ry="25.363636363636367"/><rect width="668.3294117647059" height="253.63636363636365" x="1445.294117647059" y="2155.909090909091" fill="none" stroke="#404040" stroke-miterlimit="10" rx="25.41176470588235" ry="25.363636363636367"/><rect width="668.3294117647059" height="253.63636363636365" x="47.64705882352941" y="2409.545454545455" fill="none" stroke="#404040" stroke-miterlimit="10" rx="25.41176470588235" ry="25.363636363636367"/><rect width="668.3294117647059" height="253.63636363636365" x="746.4705882352941" y="2409.545454545455" fill="none" stroke="#404040" stroke-miterlimit="10" rx="25.41176470588235" ry="25.363636363636367"/><rect width="668.3294117647059" height="253.63636363636365" x="1445.294117647059" y="2409.545454545455" fill="none" stroke="#404040" stroke-miterlimit="10" rx="25.41176470588235" ry="25.363636363636367"/><g><text x="788.3333333333334" y="135" dominant-baseline="hanging" font-family="&quot;EB Garamond&quot;,&quot;Times New Roman&quot;,serif" font-size="35" font-weight="700">Modern Horizons 3</text><text x="788.3333333333334" y="175" dominant-baseline="hanging" font-family="&quot;Source Sans Pro&quot;,&quot;Helvetica Neue&quot;,Helvetica,Arial,sans-serif" font-size="25">MH3 - June 2024</text><image width="70" height="70" x="1313.3333333333335" y="140" href="mh3.svg"/></g><rect width="668.3294117647059" height="253.63636363636365" x="47.64705882352941" y="126.81818181818183" fill="none" stroke="#404040" stroke-miterlimit="10" rx="25.41176470588235" ry="25.363636363636367"/><rect width="668.3294117647059" height="253.63636363636365" x="746.4705882352941" y="126.81818181818183" fill="none" stroke="#404040" stroke-miterlimit="10" rx="25.41176470588235" ry="25.363636363636367"/><rect width="668.3294117647059" height="253.63636363636365" x="1445.294117647059" y="126.81818181818183" fill="none" stroke="#404040" stroke-miterlimit="10" rx="25.41176470588235" ry="25.363636363636367"/><rect width="668.3294117647059" height="253.63636363636365" x="47.64705882352941" y="380.4545454545455" fill="none" stroke="#404040" stroke-miterlimit="10" rx="25.41176470588235" ry="25.363636363636367"/><rect width="668.3294117647059" height="253.63636363636365" x="746.4705882352941" y="380.4545454545455" fill="none" stroke="#404040" stroke-miterlimit="10" rx="25.41176470588235" ry="25.363636363636367"/><rect width="668.3294117647059" height="253.63636363636365" x="1445.294117647059" y="380.4545454545455" fill="none" stroke="#404040" stroke-miterlimit="10" rx="25.41176470588235" ry="25.363636363636367"/><rect width="668.3294117647059" height="253.63636363636365" x="47.64705882352941" y="634.0909090909091" fill="none" stroke="#404040" stroke-miterlimit="10" rx="25.41176470588235" ry="25.363636363636367"/><rect width="668.3294117647059" height="253.63636363636365" x="746.4705882352941" y="634.0909090909091" fill="none" stroke="#404040" stroke-miterlimit="10" rx="25.41176470588235" ry="25.363636363636367"/><rect width="668.3294117647059" height="253.63636363636365" x="1445.294117647059" y="634.0909090909091" fill="none" stroke="#404040" stroke-miterlimit="10" rx="25.41176470588235" ry="25.363636363636367"/><rect width="668.3294117647059" height="253.63636363636365" x="47.64705882352941" y="887.7272727272729" fill="none" stroke="#404040" stroke-miterlimit="10" rx="25.41176470588235" ry="25.363636363636367"/><rect width="668.3294117647059" height="253.63636363636365" x="746.4705882352941" y="887.7272727272729" fill="none" stroke="#404040" stroke-miterlimit="10" rx="25.41176470588235" ry="25.363636363636367"/><rect width="668.3294117647059" height="253.63636363636365" x="1445.294117647059" y="887.7272727272729" fill="none" stroke="#404040" stroke-miterlimit="10" rx="25.41176470588235" ry="25.363636363636367"/><rect width="668.3294117647059" height="253.63636363636365" x="47.64705882352941" y="1141.3636363636365" fill="none" stroke="#404040" stroke-miterlimit="10" rx="25.41176470588235" ry="25.363636363636367"/><rect width="668.3294117647059" height="253.63636363636365" x="746.4705882352941" y="1141.3636363636365" fill="none" stroke="#404040" stroke-miterlimit="10" rx="25.41176470588235" ry="25.363636363636367"/><rect width="668.3294117647059" height="253.63636363636365" x="1445.294117647059" y="1141.3636363636365" fill="none" stroke="#404040" stroke-miterlimit="10" rx="25.41176470588235" ry="25.363636363636367"/><rect width="668.3294117647059" height="253.63636363636365" x="47.64705882352941" y="1395.0" fill="none" stroke="#404040" stroke-miterlimit="10" rx="25.41176470588235" ry="25.363636363636367"/><rect width="668.3294117647059" height="253.63636363636365" x="746.4705882352941" y="1395.0" fill="none" stroke="#404040" stroke-miterlimit="10" rx="25.41176470588235" ry="25.363636363636367"/><rect width="668.3294117647059" height="253.63636363636365" x="1445.294117647059" y="1395.0" fill="none" stroke="#404040" stroke-miterlimit="10" rx="25.41176470588235" ry="25.363636363636367"/><rect width="668.3294117647059" height="253.63636363636365" x="47.64705882352941" y="1648.6363636363637" fill="none" stroke="#404040" stroke-miterlimit="10" rx="25.41176470588235" ry="25.363636363636367"/><rect width="668.3294117647059" height="253.63636363636365" x="746.4705882352941" y="1648.6363636363637" fill="none" stroke="#404040" stroke-miterlimit="10" rx="25.41176470588235" ry="25.363636363636367"/><rect width="668.3294117647059" height="253.63636363636365" x="1445.294117647059" y="1648.6363636363637" fill="none" stroke="#404040" stroke-miterlimit="10" rx="25.41176470588235" ry="25.363636363636367"/><rect width="668.3294117647059" height="253.63636363636365" x="47.64705882352941" y="1902.2727272727273" fill="none" stroke="#404040" stroke-miterlimit="10" rx="25.41176470588235" ry="25.363636363636367"/><rect width="668.3294117647059" height="253.63636363636365" x="746.4705882352941" y="1902.2727272727273" fill="none" stroke="#404040" stroke-miterlimit="10" rx="25.41176470588235" ry="25.363636363636367"/><rect width="668.3294117647059" height="253.63636363636365" x="1445.294117647059" y="1902.2727272727273" fill="none" stroke="#404040" stroke-miterlimit="10" rx="25.41176470588235" ry="25.363636363636367"/><rect width="668.3294117647059" height="253.63636363636365" x="47.64705882352941" y="2155.909090909091" fill="none" stroke="#404040" stroke-miterlimit="10" rx="25.41176470588235" ry="25.363636363636367"/><rect width="668.3294117647059" height="253.63636363636365" x="746.4705882352941" y="2155.909090909091" fill="none" stroke="#404040" stroke-miterlimit="10" rx="25.41176470588235" ry="25.363636363636367"/><rect width="668.3294117647059" height="253.63636363636365" x="1445.294117647059" y="2155.909090909091" fill="none" stroke="#404040" stroke-miterlimit="10" rx="25.41176470588235" ry="25.363636363636367"/><rect width="668.3294117647059" height="253.63636363636365" x="47.64705882352941" y="2409.545454545455" fill="none" stroke="#404040" stroke-miterlimit="10" rx="25.41176470588235" ry="25.363636363636367"/><rect width="668.3294117647059" height="253.63636363636365" x="746.4705882352941" y="2409.545454545455" fill="none" stroke="#404040" stroke-miterlimit="10" rx="25.41176470588235" ry="25.363636363636367"/><rect width="668.3294117647059" height="253.63636363636365" x="1445.294117647059" y="2409.545454545455" fill="none" stroke="#404040" stroke-miterlimit="10" rx="25.41176470588235" ry="25.363636363636367"/><g><text x="788.3333333333334" y="388.0" dominant-baseline="hanging" font-family="&quot;EB Garamond&quot;,&quot;Times New Roman&quot;,serif" font-size="35" font-weight="700">Modern Horizons 3 Commander</text><text x="788.3333333333334" y="428.0" dominant-baseline="hanging" font-family="&quot;Source Sans Pro&quot;,&quot;Helvetica Neue&quot;,Helvetica,Arial,sans-serif" font-size="25">M3C - June 2024</text><image width="70" height="70" x="1313.3333333333335" y="393.0" href="m3c.svg"/></g><rect width="668.3294117647059" height="253.63636363636365" x="47.64705882352941" y="126.81818181818183" fill="none" stroke="#404040" stroke-miterlimit="10" rx="25.41176470588235" ry="25.363636363636367"/><rect width="668.3294117647059" height="253.63636363636365" x="746.4705882352941" y="126.81818181818183" fill="none" stroke="#404040" stroke-miterlimit="10" rx="25.41176470588235" ry="25.363636363636367"/><rect width="668.3294117647059" height="253.63636363636365" x="1445.294117647059" y="126.81818181818183" fill="none" stroke="#404040" stroke-miterlimit="10" rx="25.41176470588235" ry="25.363636363636367"/><rect width="668.3294117647059" height="253.63636363636365" x="47.64705882352941" y="380.4545454545455" fill="none" stroke="#404040" stroke-miterlimit="10" rx="25.41176470588235" ry="25.363636363636367"/><rect width="668.3294117647059" height="253.63636363636365" x="746.4705882352941" y="380.4545454545455" fill="none" stroke="#404040" stroke-miterlimit="10" rx="25.41176470588235" ry="25.363636363636367"/><rect width="668.3294117647059" height="253.63636363636365" x="1445.294117647059" y="380.4545454545455" fill="none" stroke="#404040" stroke-miterlimit="10" rx="25.41176470588235" ry="25.363636363636367"/><rect width="668.3294117647059" height="253.63636363636365" x="47.64705882352941" y="634.0909090909091" fill="none" stroke="#404040" stroke-miterlimit="10" rx="25.41176470588235" ry="25.363636363636367"/><rect width="668.3294117647059" height="253.63636363636365" x="746.4705882352941" y="634.0909090909091" fill="none" stroke="#404040" stroke-miterlimit="10" rx="25.41176470588235" ry="25.363636363636367"/><rect width="668.3294117647059" height="253.63636363636365" x="1445.294117647059" y="634.0909090909091" fill="none" stroke="#404040" stroke-miterlimit="10" rx="25.41176470588235" ry="25.363636363636367"/><rect width="668.3294117647059" height="253.63636363636365" x="47.64705882352941" y="887.7272727272729" fill="none" stroke="#404040" stroke-miterlimit="10" rx="25.41176470588235" ry="25.363636363636367"/><rect width="668.3294117647059" height="253.63636363636365" x="746.4705882352941" y="887.7272727272729" fill="none" stroke="#404040" stroke-miterlimit="10" rx="25.41176470588235" ry="25.363636363636367"/><rect width="668.3294117647059" height="253.63636363636365" x="1445.294117647059" y="887.7272727272729" fill="none" stroke="#404040" stroke-miterlimit="10" rx="25.41176470588235" ry="25.363636363636367"/><rect width="668.3294117647059" height="253.63636363636365" x="47.64705882352941" y="1141.3636363636365" fill="none" stroke="#404040" stroke-miterlimit="10" rx="25.41176470588235" ry="25.363636363636367"/><rect width="668.3294117647059" height="253.63636363636365" x="746.4705882352941" y="1141.3636363636365" fill="none" stroke="#404040" stroke-miterlimit="10" rx="25.41176470588235" ry="25.363636363636367"/><rect width="668.3294117647059" height="253.63636363636365" x="1445.294117647059" y="1141.3636363636365" fill="none" stroke="#404040" stroke-miterlimit="10" rx="25.41176470588235" ry="25.363636363636367"/><rect width="668.3294117647059" height="253.63636363636365" x="47.64705882352941" y="1395.0" fill="none" stroke="#404040" stroke-miterlimit="10" rx="25.41176470588235" ry="25.363636363636367"/><rect width="668.3294117647059" height="253.63636363636365" x="746.4705882352941" y="1395.0" fill="none" stroke="#404040" stroke-miterlimit="10" rx="25.41176470588235" ry="25.363636363636367"/><rect width="668.3294117647059" height="253.63636363636365" x="1445.294117647059" y="1395.0" fill="none" stroke="#404040" stroke-miterlimit="10" rx="25.41176470588235" ry="25.363636363636367"/><rect width="668.3294117647059" height="253.63636363636365" x="47.64705882352941" y="1648.6363636363637" fill="none" stroke="#404040" stroke-miterlimit="10" rx="25.41176470588235" ry="25.363636363636367"/><rect width="668.3294117647059" height="253.63636363636365" x="746.4705882352941" y="1648.6363636363637" fill="none" stroke="#404040" stroke-miterlimit="10" rx="25.41176470588235" ry="25.363636363636367"/><rect width="668.3294117647059" height="253.63636363636365" x="1445.294117647059" y="1648.6363636363637" fill="none" stroke="#404040" stroke-miterlimit="10" rx="25.41176470588235" ry="25.363636363636367"/><rect width="668.3294117647059" height="253.63636363636365" x="47.64705882352941" y="1902.2727272727273" fill="none" stroke="#404040" stroke-miterlimit="10" rx="25.41176470588235" ry="25.363636363636367"/><rect width="668.3294117647059" height="253.63636363636365" x="746.4705882352941" y="1902.2727272727273" fill="none" stroke="#404040" stroke-miterlimit="10" rx="25.41176470588235" ry="25.363636363636367"/><rect width="668.3294117647059" height="253.63636363636365" x="1445.294117647059" y="1902.2727272727273" fill="none" stroke="#404040" stroke-miterlimit="10" rx="25.41176470588235" ry="25.363636363636367"/><rect width="668.3294117647059" height="253.63636363636365" x="47.64705882352941" y="2155.909090909091" fill="none" stroke="#404040" stroke-miterlimit="10" rx="25.41176470588235" ry="25.363636363636367"/><rect width="668.3294117647059" height="253.63636363636365" x="746.4705882352941" y="2155.909090909091" fill="none" stroke="#404040" stroke-miterlimit="10" rx="25.41176470588235" ry="25.363636363636367"/><rect width="668.3294117647059" height="253.63636363636365" x="1445.294117647059" y="2155.909090909091" fill="none" stroke="#404040" stroke-miterlimit="10" rx="25.41176470588235" ry="25.363636363636367"/><rect width="668.3294117647059" height="253.63636363636365" x="47.64705882352941" y="2409.545454545455" fill="none" stroke="#404040" stroke-miterlimit="10" rx="25.41176470588235" ry="25.363636363636367"/><rect width="668.3294117647059" height="253.63636363636365" x="746.4705882352941" y="2409.545454545455" fill="none" stroke="#404040" stroke-miterlimit="10" rx="25.41176470588235" ry="25.363636363636367"/><rect width="668.3294117647059" height="253.63636363636365" x="1445.294117647059" y="2409.545454545455" fill="none" stroke="#404040" stroke-miterlimit="10" rx="25.41176470588235" ry="25.363636363636367"/><g><text x="788.3333333333334" y="641.0" dominant-baseline="hanging" font-family="&quot;EB Garamond&quot;,&quot;Times New Roman&quot;,serif" font-size="35" font-weight="700">Modern Horizons 3 Tokens</text><text x="788.3333333333334" y="681.0" dominant-baseline="hanging" font-family="&quot;Source Sans Pro&quot;,&quot;Helvetica Neue&quot;,Helvetica,Arial,sans-serif" font-size="25">TMH3 - June 2024</text><image width="70" height="70" x="1313.3333333333335" y="646.0" href="mh3.svg"/></g></svg>