<?xml version="1.0" encoding="UTF-8"?>
<svg id="Layer_2_copy" data-name="Layer 2 copy" xmlns="http://www.w3.org/2000/svg" viewBox="0 0 586.36 721">
  <rect x=".5" y=".5" width="189.36" height="72" rx="7.2" ry="7.2" fill="none" stroke="#404040" stroke-miterlimit="10"/>
  <rect x="198.5" y=".5" width="189.36" height="72" rx="7.2" ry="7.2" fill="none" stroke="#404040" stroke-miterlimit="10"/>
  <rect x="396.5" y=".5" width="189.36" height="72" rx="7.2" ry="7.2" fill="none" stroke="#404040" stroke-miterlimit="10"/>
  <rect x=".5" y="72.5" width="189.36" height="72" rx="7.2" ry="7.2" fill="none" stroke="#404040" stroke-miterlimit="10"/>
  <rect x="198.5" y="72.5" width="189.36" height="72" rx="7.2" ry="7.2" fill="none" stroke="#404040" stroke-miterlimit="10"/>
  <rect x="396.5" y="72.5" width="189.36" height="72" rx="7.2" ry="7.2" fill="none" stroke="#404040" stroke-miterlimit="10"/>
  <rect x=".5" y="144.5" width="189.36" height="72" rx="7.2" ry="7.2" fill="none" stroke="#404040" stroke-miterlimit="10"/>
  <rect x="198.5" y="144.5" width="189.36" height="72" rx="7.2" ry="7.2" fill="none" stroke="#404040" stroke-miterlimit="10"/>
  <rect x="396.5" y="144.5" width="189.36" height="72" rx="7.2" ry="7.2" fill="none" stroke="#404040" stroke-miterlimit="10"/>
  <rect x=".5" y="216.5" width="189.36" height="72" rx="7.2" ry="7.2" fill="none" stroke="#404040" stroke-miterlimit="10"/>
  <rect x="198.5" y="216.5" width="189.36" height="72" rx="7.2" ry="7.2" fill="none" stroke="#404040" stroke-miterlimit="10"/>
  <rect x="396.5" y="216.5" width="189.36" height="72" rx="7.2" ry="7.2" fill="none" stroke="#404040" stroke-miterlimit="10"/>
  <rect x=".5" y="288.5" width="189.36" height="72" rx="7.2" ry="7.2" fill="none" stroke="#404040" stroke-miterlimit="10"/>
  <rect x="198.5" y="288.5" width="189.36" height="72" rx="7.2" ry="7.2" fill="none" stroke="#404040" stroke-miterlimit="10"/>
  <rect x="396.5" y="288.5" width="189.36" height="72" rx="7.2" ry="7.2" fill="none" stroke="#404040" stroke-miterlimit="10"/>
  <rect x=".5" y="360.5" width="189.36" height="72" rx="7.2" ry="7.2" fill="none" stroke="#404040" stroke-miterlimit="10"/>
  <rect x="198.5" y="360.5" width="189.36" height="72" rx="7.2" ry="7.2" fill="none" stroke="#404040" stroke-miterlimit="10"/>
  <rect x="396.5" y="360.5" width="189.36" height="72" rx="7.2" ry="7.2" fill="none" stroke="#404040" stroke-miterlimit="10"/>
  <rect x=".5" y="432.5" width="189.36" height="72" rx="7.2" ry="7.2" fill="none" stroke="#404040" stroke-miterlimit="10"/>
  <rect x="198.5" y="432.5" width="189.36" height="72" rx="7.2" ry="7.2" fill="none" stroke="#404040" stroke-miterlimit="10"/>
  <rect x="396.5" y="432.5" width="189.36" height="72" rx="7.2" ry="7.2" fill="none" stroke="#404040" stroke-miterlimit="10"/>
  <rect x=".5" y="504.5" width="189.36" height="72" rx="7.2" ry="7.2" fill="none" stroke="#404040" stroke-miterlimit="10"/>
  <rect x="198.5" y="504.5" width="189.36" height="72" rx="7.2" ry="7.2" fill="none" stroke="#404040" stroke-miterlimit="10"/>
  <rect x="396.5" y="504.5" width="189.36" height="72" rx="7.2" ry="7.2" fill="none" stroke="#404040" stroke-miterlimit="10"/>
  <rect x=".5" y="576.5" width="189.36" height="72" rx="7.2" ry="7.2" fill="none" stroke="#404040" stroke-miterlimit="10"/>
  <rect x="198.5" y="576.5" width="189.36" height="72" rx="7.2" ry="7.2" fill="none" stroke="#404040" stroke-miterlimit="10"/>
  <rect x="396.5" y="576.5" width="189.36" height="72" rx="7.2" ry="7.2" fill="none" stroke="#404040" stroke-miterlimit="10"/>
  <rect x=".5" y="648.5" width="189.36" height="72" rx="7.2" ry="7.2" fill="none" stroke="#404040" stroke-miterlimit="10"/>
  <rect x="198.5" y="648.5" width="189.36" height="72" rx="7.2" ry="7.2" fill="none" stroke="#404040" stroke-miterlimit="10"/>
  <rect x="396.5" y="648.5" width="189.36" height="72" rx="7.2" ry="7.2" fill="none" stroke="#404040" stroke-miterlimit="10"/>
</svg>