<?xml version="1.0" encoding="UTF-8"?>
<svg id="Layer_2_copy" data-name="Layer 2 copy" xmlns="http://www.w3.org/2000/svg" viewBox="0 0 612 792">
  <rect x="13.5" y="36" width="189.36" height="72" rx="7.2" ry="7.2" fill="none" stroke="#404040" stroke-miterlimit="10"/>
  <rect x="211.5" y="36" width="189.36" height="72" rx="7.2" ry="7.2" fill="none" stroke="#404040" stroke-miterlimit="10"/>
  <rect x="409.5" y="36" width="189.36" height="72" rx="7.2" ry="7.2" fill="none" stroke="#404040" stroke-miterlimit="10"/>
  <rect x="13.5" y="108" width="189.36" height="72" rx="7.2" ry="7.2" fill="none" stroke="#404040" stroke-miterlimit="10"/>
  <rect x="211.5" y="108" width="189.36" height="72" rx="7.2" ry="7.2" fill="none" stroke="#404040" stroke-miterlimit="10"/>
  <rect x="409.5" y="108" width="189.36" height="72" rx="7.2" ry="7.2" fill="none" stroke="#404040" stroke-miterlimit="10"/>
  <rect x="13.5" y="180" width="189.36" height="72" rx="7.2" ry="7.2" fill="none" stroke="#404040" stroke-miterlimit="10"/>
  <rect x="211.5" y="180" width="189.36" height="72" rx="7.2" ry="7.2" fill="none" stroke="#404040" stroke-miterlimit="10"/>
  <rect x="409.5" y="180" width="189.36" height="72" rx="7.2" ry="7.2" fill="none" stroke="#404040" stroke-miterlimit="10"/>
  <rect x="13.5" y="252" width="189.36" height="72" rx="7.2" ry="7.2" fill="none" stroke="#404040" stroke-miterlimit="10"/>
  <rect x="211.5" y="252" width="189.36" height="72" rx="7.2" ry="7.2" fill="none" stroke="#404040" stroke-miterlimit="10"/>
  <rect x="409.5" y="252" width="189.36" height="72" rx="7.2" ry="7.2" fill="none" stroke="#404040" stroke-miterlimit="10"/>
  <rect x="13.5" y="324" width="189.36" height="72" rx="7.2" ry="7.2" fill="none" stroke="#404040" stroke-miterlimit="10"/>
  <rect x="211.5" y="324" width="189.36" height="72" rx="7.2" ry="7.2" fill="none" stroke="#404040" stroke-miterlimit="10"/>
  <rect x="409.5" y="324" width="189.36" height="72" rx="7.2" ry="7.2" fill="none" stroke="#404040" stroke-miterlimit="10"/>
  <rect x="13.5" y="396" width="189.36" height="72" rx="7.2" ry="7.2" fill="none" stroke="#404040" stroke-miterlimit="10"/>
  <rect x="211.5" y="396" width="189.36" height="72" rx="7.2" ry="7.2" fill="none" stroke="#404040" stroke-miterlimit="10"/>
  <rect x="409.5" y="396" width="189.36" height="72" rx="7.2" ry="7.2" fill="none" stroke="#404040" stroke-miterlimit="10"/>
  <rect x="13.5" y="468" width="189.36" height="72" rx="7.2" ry="7.2" fill="none" stroke="#404040" stroke-miterlimit="10"/>
  <rect x="211.5" y="468" width="189.36" height="72" rx="7.2" ry="7.2" fill="none" stroke="#404040" stroke-miterlimit="10"/>
  <rect x="409.5" y="468" width="189.36" height="72" rx="7.2" ry="7.2" fill="none" stroke="#404040" stroke-miterlimit="10"/>
  <rect x="13.5" y="540" width="189.36" height="72" rx="7.2" ry="7.2" fill="none" stroke="#404040" stroke-miterlimit="10"/>
  <rect x="211.5" y="540" width="189.36" height="72" rx="7.2" ry="7.2" fill="none" stroke="#404040" stroke-miterlimit="10"/>
  <rect x="409.5" y="540" width="189.36" height="72" rx="7.2" ry="7.2" fill="none" stroke="#404040" stroke-miterlimit="10"/>
  <rect x="13.5" y="612" width="189.36" height="72" rx="7.2" ry="7.2" fill="none" stroke="#404040" stroke-miterlimit="10"/>
  <rect x="211.5" y="612" width="189.36" height="72" rx="7.2" ry="7.2" fill="none" stroke="#404040" stroke-miterlimit="10"/>
  <rect x="409.5" y="612" width="189.36" height="72" rx="7.2" ry="7.2" fill="none" stroke="#404040" stroke-miterlimit="10"/>
  <rect x="13.5" y="684" width="189.36" height="72" rx="7.2" ry="7.2" fill="none" stroke="#404040" stroke-miterlimit="10"/>
  <rect x="211.5" y="684" width="189.36" height="72" rx="7.2" ry="7.2" fill="none" stroke="#404040" stroke-miterlimit="10"/>
  <rect x="409.5" y="684" width="189.36" height="72" rx="7.2" ry="7.2" fill="none" stroke="#404040" stroke-miterlimit="10"/>
</svg>